shantell--extrabold_bounce.ufo
<glyph name="numbersign" format="2">
	<unicode hex="0023"/>
	<advance width="1029"/>
	<image fileName="numbersign.png" xScale="1.7590725526" yScale="1.7590725526" xOffset="11.9256325946" yOffset="-214.5705612106" color="0,0,0,0.3075"/>
	<outline>
		<contour>
			<point x="539" y="621.893799956" type="curve" smooth="yes"/>
			<point x="539" y="458.893799956"/>
			<point x="332" y="41.893799956"/>
			<point x="332" y="-138.106200044" type="curve" smooth="yes"/>
			<point x="332" y="-188.106200044"/>
			<point x="290" y="-227.106200044"/>
			<point x="248" y="-226.106200044" type="curve" smooth="yes"/>
			<point x="194" y="-225.106200044"/>
			<point x="150" y="-186.106200044"/>
			<point x="150" y="-109.106200044" type="curve" smooth="yes"/>
			<point x="150" y="58.893799956"/>
			<point x="358" y="477.893799956"/>
			<point x="358" y="633.893799956" type="curve" smooth="yes"/>
			<point x="358" y="699.893799956"/>
			<point x="385" y="730.893799956"/>
			<point x="433" y="731.893799956" type="curve" smooth="yes"/>
			<point x="490" y="732.893799956"/>
			<point x="539" y="681.893799956"/>
		</contour>
		<contour>
			<point x="828" y="680.893799956"/>
			<point x="884" y="639.893799956"/>
			<point x="884" y="576.893799956" type="curve" smooth="yes"/>
			<point x="884" y="431.893799956"/>
			<point x="682" y="82.893799956"/>
			<point x="682" y="-189.106200044" type="curve" smooth="yes"/>
			<point x="682" y="-246.106200044"/>
			<point x="649" y="-277.106200044"/>
			<point x="604" y="-276.106200044" type="curve" smooth="yes"/>
			<point x="540" y="-275.106200044"/>
			<point x="499" y="-230.106200044"/>
			<point x="500" y="-173.106200044" type="curve" smooth="yes"/>
			<point x="505" y="94.893799956"/>
			<point x="706" y="436.893799956"/>
			<point x="706" y="599.893799956" type="curve" smooth="yes"/>
			<point x="706" y="650.893799956"/>
			<point x="727" y="680.893799956"/>
			<point x="772" y="680.893799956" type="curve" smooth="yes"/>
		</contour>
		<contour>
			<point x="128" y="165.893799956" type="curve" smooth="yes"/>
			<point x="371.2781456954" y="165.893799956"/>
			<point x="659.7218543046" y="198.893799956"/>
			<point x="903" y="198.893799956" type="curve" smooth="yes"/>
			<point x="962" y="198.893799956"/>
			<point x="983" y="177.893799956"/>
			<point x="984" y="139.893799956" type="curve" smooth="yes"/>
			<point x="986" y="85.893799956"/>
			<point x="942" y="30.893799956"/>
			<point x="838" y="26.893799956" type="curve" smooth="yes"/>
			<point x="639.9896802498" y="21.7372812125"/>
			<point x="354.2978056426" y="-30.106200044"/>
			<point x="180" y="-30.106200044" type="curve" smooth="yes"/>
			<point x="66" y="-30.106200044"/>
			<point x="32" y="28.893799956"/>
			<point x="35" y="87.893799956" type="curve" smooth="yes"/>
			<point x="37" y="130.893799956"/>
			<point x="78" y="165.893799956"/>
		</contour>
		<contour>
			<point x="330.8708708709" y="524.893799956"/>
			<point x="374" y="470.893799956"/>
			<point x="920" y="470.893799956" type="curve" smooth="yes"/>
			<point x="967" y="470.893799956"/>
			<point x="993" y="446.893799956"/>
			<point x="994" y="402.893799956" type="curve" smooth="yes"/>
			<point x="995" y="355.893799956"/>
			<point x="956" y="309.893799956"/>
			<point x="890" y="309.893799956" type="curve" smooth="yes"/>
			<point x="660" y="309.893799956"/>
			<point x="459" y="316.893799956"/>
			<point x="290" y="336.893799956" type="curve" smooth="yes"/>
			<point x="177" y="348.893799956"/>
			<point x="153" y="402.893799956"/>
			<point x="153" y="447.893799956" type="curve" smooth="yes"/>
			<point x="153" y="492.893799956"/>
			<point x="178" y="524.893799956"/>
			<point x="240" y="524.893799956" type="curve" smooth="yes"/>
		</contour>
	</outline>
</glyph>
<glyph name="dollar" format="2">
	<unicode hex="0024"/>
	<advance width="603"/>
	<outline>
		<contour>
			<point x="262" y="136.4436708315" type="curve" smooth="yes"/>
			<point x="459" y="136.4436708315"/>
			<point x="556" y="191.4436708315"/>
			<point x="556" y="313.4436708315" type="curve" smooth="yes"/>
			<point x="556" y="507.4436708315"/>
			<point x="226" y="530.4436708315"/>
			<point x="226" y="596.4436708315" type="curve" smooth="yes"/>
			<point x="226" y="649.4436708315"/>
			<point x="312" y="675.4436708315"/>
			<point x="488" y="685.4436708315" type="curve" smooth="yes"/>
			<point x="529" y="687.4436708315"/>
			<point x="554" y="721.4436708315"/>
			<point x="554" y="760.4436708315" type="curve" smooth="yes"/>
			<point x="554" y="809.4436708315"/>
			<point x="530" y="855.4436708315"/>
			<point x="458" y="855.4436708315" type="curve" smooth="yes"/>
			<point x="329" y="855.4436708315"/>
			<point x="47" y="784.4436708315"/>
			<point x="47" y="600.4436708315" type="curve" smooth="yes"/>
			<point x="47" y="402.4436708315"/>
			<point x="382.9327678114" y="438.8134478689"/>
			<point x="405" y="317.4436708315" type="curve"/>
			<point x="350.4439060533" y="304.1077367556"/>
			<point x="318.1044776119" y="303.4436708315"/>
			<point x="241" y="303.4436708315" type="curve" smooth="yes"/>
			<point x="166" y="303.4436708315"/>
			<point x="148" y="330.4436708315"/>
			<point x="112" y="330.4436708315" type="curve" smooth="yes"/>
			<point x="70" y="330.4436708315"/>
			<point x="60" y="309.4436708315"/>
			<point x="60" y="274.4436708315" type="curve" smooth="yes"/>
			<point x="60" y="204.4436708315"/>
			<point x="131" y="136.4436708315"/>
		</contour>
		<contour>
			<point x="321" y="593.4436708315" type="curve" smooth="yes"/>
			<point x="353" y="593.4436708315"/>
			<point x="371" y="615.4436708315"/>
			<point x="383" y="657.4436708315" type="curve" smooth="yes"/>
			<point x="407" y="749.4436708315"/>
			<point x="407" y="833.4436708315"/>
			<point x="392" y="905.4436708315" type="curve" smooth="yes"/>
			<point x="383" y="940.4436708315"/>
			<point x="347" y="966.4436708315"/>
			<point x="307" y="966.4436708315" type="curve" smooth="yes"/>
			<point x="257" y="966.4436708315"/>
			<point x="216" y="920.4436708315"/>
			<point x="224" y="872.4436708315" type="curve" smooth="yes"/>
			<point x="232" y="824.4436708315"/>
			<point x="245" y="778.4436708315"/>
			<point x="251" y="708.4436708315" type="curve" smooth="yes"/>
			<point x="258" y="629.4436708315"/>
			<point x="266" y="592.4436708315"/>
		</contour>
		<contour>
			<point x="278" y="357.4436708315" type="curve" smooth="yes"/>
			<point x="245" y="357.4436708315"/>
			<point x="221" y="337.4436708315"/>
			<point x="218" y="295.4436708315" type="curve" smooth="yes"/>
			<point x="212" y="201.4436708315"/>
			<point x="201" y="161.4436708315"/>
			<point x="210" y="80.4436708315" type="curve" smooth="yes"/>
			<point x="214" y="48.4436708315"/>
			<point x="251" y="7.4436708315"/>
			<point x="321" y="7.4436708315" type="curve" smooth="yes"/>
			<point x="358" y="7.4436708315"/>
			<point x="375" y="32.4436708315"/>
			<point x="373" y="94.4436708315" type="curve" smooth="yes"/>
			<point x="370" y="147.4436708315"/>
			<point x="355" y="213.4436708315"/>
			<point x="346" y="262.4436708315" type="curve" smooth="yes"/>
			<point x="334" y="322.4436708315"/>
			<point x="315" y="357.4436708315"/>
		</contour>
	</outline>
</glyph>
<glyph name="ampersand" format="2">
	<unicode hex="0026"/>
	<advance width="713"/>
	<outline>
		<contour>
			<point x="429" y="401.5268804036"/>
			<point x="398" y="433.5268804036"/>
			<point x="308" y="433.5268804036" type="curve" smooth="yes"/>
			<point x="243" y="433.5268804036"/>
			<point x="208" y="413.7155596489"/>
			<point x="208" y="383.5268804036" type="curve" smooth="yes"/>
			<point x="208" y="355.8629459774"/>
			<point x="223" y="338.5268804036"/>
			<point x="390" y="258.5268804036" type="curve" smooth="yes"/>
			<point x="652" y="132.5268804036"/>
			<point x="679" y="48.5268804036"/>
			<point x="679" y="-73.4731195964" type="curve" smooth="yes"/>
			<point x="679" y="-152.4731195964"/>
			<point x="643" y="-272.4731195964"/>
			<point x="544" y="-272.4731195964" type="curve" smooth="yes"/>
			<point x="498" y="-272.4731195964"/>
			<point x="469" y="-246.4731195964"/>
			<point x="469" y="-199.4731195964" type="curve" smooth="yes"/>
			<point x="469" y="-145.4731195964"/>
			<point x="509" y="-140.4731195964"/>
			<point x="509" y="-78.4731195964" type="curve" smooth="yes"/>
			<point x="509" y="-14.4731195964"/>
			<point x="469" y="37.5268804036"/>
			<point x="248" y="146.5268804036" type="curve" smooth="yes"/>
			<point x="60" y="239.5268804036"/>
			<point x="38" y="313.5268804036"/>
			<point x="38" y="387.5268804036" type="curve" smooth="yes"/>
			<point x="38" y="493.5268804036"/>
			<point x="113" y="603.5268804036"/>
			<point x="304" y="603.5268804036" type="curve" smooth="yes"/>
			<point x="383" y="603.5268804036"/>
			<point x="442" y="591.5268804036"/>
			<point x="502" y="564.5268804036" type="curve" smooth="yes"/>
			<point x="534" y="549.5268804036"/>
			<point x="552" y="518.5268804036"/>
			<point x="552" y="485.5268804036" type="curve" smooth="yes"/>
			<point x="552" y="439.5268804036"/>
			<point x="511" y="401.5268804036"/>
			<point x="466" y="401.5268804036" type="curve" smooth="yes"/>
		</contour>
		<contour>
			<point x="254" y="177.5268804036" type="curve" smooth="yes"/>
			<point x="226" y="141.5268804036"/>
			<point x="218" y="124.5268804036"/>
			<point x="218" y="95.5268804036" type="curve" smooth="yes"/>
			<point x="218" y="61.5268804036"/>
			<point x="247" y="44.5268804036"/>
			<point x="277" y="44.5268804036" type="curve" smooth="yes"/>
			<point x="366" y="44.5268804036"/>
			<point x="437" y="125.5268804036"/>
			<point x="539" y="304.5268804036" type="curve" smooth="yes"/>
			<point x="553" y="331.5268804036"/>
			<point x="565" y="348.5268804036"/>
			<point x="592" y="348.5268804036" type="curve" smooth="yes"/>
			<point x="637" y="348.5268804036"/>
			<point x="680" y="312.5268804036"/>
			<point x="680" y="255.5268804036" type="curve" smooth="yes"/>
			<point x="680" y="241.5268804036"/>
			<point x="673" y="210.5268804036"/>
			<point x="651" y="176.5268804036" type="curve" smooth="yes"/>
			<point x="490" y="-73.4731195964"/>
			<point x="400" y="-116.4731195964"/>
			<point x="263" y="-116.4731195964" type="curve" smooth="yes"/>
			<point x="146" y="-116.4731195964"/>
			<point x="48" y="-44.4731195964"/>
			<point x="48" y="75.5268804036" type="curve" smooth="yes"/>
			<point x="48" y="162.5268804036"/>
			<point x="89" y="219.5268804036"/>
			<point x="144" y="255.5268804036" type="curve" smooth="yes"/>
			<point x="179" y="278.5268804036"/>
			<point x="214" y="282.5268804036"/>
			<point x="247" y="257.5268804036" type="curve" smooth="yes"/>
			<point x="266" y="243.5268804036"/>
			<point x="271" y="199.5268804036"/>
		</contour>
	</outline>
</glyph>
<glyph name="parenleft" format="2">
	<unicode hex="0028"/>
	<advance width="519"/>
	<image fileName="parenleft.png" xScale="2.5963710802" yScale="2.5963710802" xOffset="-138.7459756108" yOffset="-555.3762351949" color="0,0,0,0.18426"/>
	<outline>
		<contour>
			<point x="441" y="723.1933696888" type="curve" smooth="yes"/>
			<point x="341" y="605.1933696888"/>
			<point x="245" y="443.1933696888"/>
			<point x="245" y="253.1933696888" type="curve" smooth="yes"/>
			<point x="245" y="91.1933696888"/>
			<point x="319" y="-16.8066303112"/>
			<point x="439" y="-56.8066303112" type="curve" smooth="yes"/>
			<point x="483" y="-71.8066303112"/>
			<point x="499" y="-84.8066303112"/>
			<point x="499" y="-115.8066303112" type="curve" smooth="yes"/>
			<point x="499" y="-164.8066303112"/>
			<point x="448" y="-195.8066303112"/>
			<point x="402" y="-195.8066303112" type="curve" smooth="yes"/>
			<point x="381" y="-195.8066303112"/>
			<point x="366" y="-193.8066303112"/>
			<point x="321" y="-175.8066303112" type="curve" smooth="yes"/>
			<point x="186" y="-119.8066303112"/>
			<point x="69" y="8.1933696888"/>
			<point x="69" y="253.1933696888" type="curve" smooth="yes"/>
			<point x="69" y="485.1933696888"/>
			<point x="181" y="687.1933696888"/>
			<point x="310" y="840.1933696888" type="curve" smooth="yes"/>
			<point x="333" y="868.1933696888"/>
			<point x="358" y="878.1933696888"/>
			<point x="383" y="878.1933696888" type="curve" smooth="yes"/>
			<point x="428" y="878.1933696888"/>
			<point x="474" y="832.1933696888"/>
			<point x="474" y="787.1933696888" type="curve" smooth="yes"/>
			<point x="474" y="767.1933696888"/>
			<point x="464" y="750.1933696888"/>
		</contour>
	</outline>
</glyph>
<glyph name="parenright" format="2">
	<unicode hex="0029"/>
	<advance width="514"/>
	<image fileName="parenleft.png" xScale="2.5963710802" yScale="2.5963710802" xOffset="-2052.7459756108" yOffset="-485.3762351949" color="0,0,0,0.18426"/>
	<outline>
		<contour>
			<point x="68" y="21.8529856605" type="curve" smooth="yes"/>
			<point x="189" y="124.8529856605"/>
			<point x="269" y="252.8529856605"/>
			<point x="269" y="417.8529856605" type="curve" smooth="yes"/>
			<point x="269" y="600.8529856605"/>
			<point x="200" y="718.8529856605"/>
			<point x="87" y="793.8529856605" type="curve" smooth="yes"/>
			<point x="42" y="823.8529856605"/>
			<point x="20" y="854.8529856605"/>
			<point x="20" y="889.8529856605" type="curve" smooth="yes"/>
			<point x="20" y="932.8529856605"/>
			<point x="58" y="962.8529856605"/>
			<point x="107" y="962.8529856605" type="curve" smooth="yes"/>
			<point x="144" y="962.8529856605"/>
			<point x="163" y="957.8529856605"/>
			<point x="194" y="937.8529856605" type="curve" smooth="yes"/>
			<point x="342" y="843.8529856605"/>
			<point x="445" y="657.8529856605"/>
			<point x="445" y="417.8529856605" type="curve" smooth="yes"/>
			<point x="445" y="208.8529856605"/>
			<point x="350" y="31.8529856605"/>
			<point x="203" y="-72.1470143395" type="curve" smooth="yes"/>
			<point x="168" y="-97.1470143395"/>
			<point x="135" y="-108.1470143395"/>
			<point x="109" y="-108.1470143395" type="curve" smooth="yes"/>
			<point x="74" y="-108.1470143395"/>
			<point x="32" y="-91.1470143395"/>
			<point x="32" y="-45.1470143395" type="curve" smooth="yes"/>
			<point x="32" y="-17.1470143395"/>
			<point x="44" y="-0.1470143395"/>
		</contour>
	</outline>
</glyph>
<glyph name="period" format="2">
	<unicode hex="002E"/>
	<advance width="320"/>
	<outline>
		<contour>
			<point x="183" y="-143.1940463043" type="curve" smooth="yes"/>
			<point x="247" y="-143.1940463043"/>
			<point x="280" y="-109.1940463043"/>
			<point x="280" y="-70.1940463043" type="curve" smooth="yes"/>
			<point x="280" y="0.8059536957"/>
			<point x="239" y="69.8059536957"/>
			<point x="135" y="69.8059536957" type="curve" smooth="yes"/>
			<point x="83" y="69.8059536957"/>
			<point x="41" y="35.8059536957"/>
			<point x="41" y="-26.1940463043" type="curve" smooth="yes"/>
			<point x="41" y="-105.1940463043"/>
			<point x="89" y="-143.1940463043"/>
		</contour>
	</outline>
</glyph>
<glyph name="slash" format="2">
	<unicode hex="002F"/>
	<advance width="455"/>
	<outline>
		<contour>
			<point x="506" y="1013.6960655735"/>
			<point x="545" y="923.6960655735"/>
			<point x="487" y="831.6960655735" type="curve" smooth="yes"/>
			<point x="353" y="617.6960655735"/>
			<point x="258" y="380.6960655735"/>
			<point x="225" y="93.6960655735" type="curve" smooth="yes"/>
			<point x="219" y="36.6960655735"/>
			<point x="187" y="5.6960655735"/>
			<point x="137" y="5.6960655735" type="curve" smooth="yes"/>
			<point x="74" y="5.6960655735"/>
			<point x="39" y="56.6960655735"/>
			<point x="46" y="120.6960655735" type="curve" smooth="yes"/>
			<point x="80" y="413.6960655735"/>
			<point x="205" y="755.6960655735"/>
			<point x="325" y="928.6960655735" type="curve" smooth="yes"/>
			<point x="365" y="986.6960655735"/>
			<point x="392" y="1013.6960655735"/>
			<point x="434" y="1013.6960655735" type="curve" smooth="yes"/>
		</contour>
	</outline>
</glyph>
<glyph name="one" format="2">
	<unicode hex="0031"/>
	<advance width="700"/>
	<outline>
		<contour>
			<point x="161" y="339.3486005877" type="curve" smooth="yes"/>
			<point x="233" y="339.3486005877"/>
			<point x="418.6808510638" y="346.3486005877"/>
			<point x="528" y="346.3486005877" type="curve" smooth="yes"/>
			<point x="622" y="346.3486005877"/>
			<point x="658" y="306.3486005877"/>
			<point x="660" y="251.3486005877" type="curve" smooth="yes"/>
			<point x="662" y="205.3486005877"/>
			<point x="632" y="172.3486005877"/>
			<point x="541" y="172.3486005877" type="curve" smooth="yes"/>
			<point x="325" y="172.3486005877"/>
			<point x="236" y="163.3486005877"/>
			<point x="188" y="163.3486005877" type="curve" smooth="yes"/>
			<point x="68" y="163.3486005877"/>
			<point x="45" y="216.7291315612"/>
			<point x="45" y="267.3486005877" type="curve" smooth="yes"/>
			<point x="45" y="309.6343148734"/>
			<point x="79" y="339.3486005877"/>
		</contour>
		<contour>
			<point x="121" y="783.3486005877" type="curve" smooth="yes"/>
			<point x="197" y="791.3486005877"/>
			<point x="260" y="820.3486005877"/>
			<point x="302" y="858.3486005877" type="curve" smooth="yes"/>
			<point x="321" y="875.3486005877"/>
			<point x="343" y="888.3486005877"/>
			<point x="375" y="888.3486005877" type="curve" smooth="yes"/>
			<point x="447" y="888.3486005877"/>
			<point x="498.6738295556" y="822.2811336788"/>
			<point x="477" y="751.3486005877" type="curve" smooth="yes"/>
			<point x="429" y="571.3486005877"/>
			<point x="433" y="371.3486005877"/>
			<point x="433" y="335.3486005877" type="curve" smooth="yes"/>
			<point x="433" y="297.3486005877"/>
			<point x="410" y="268.3486005877"/>
			<point x="367" y="268.3486005877" type="curve" smooth="yes"/>
			<point x="300" y="268.3486005877"/>
			<point x="260" y="321.3486005877"/>
			<point x="260" y="387.3486005877" type="curve" smooth="yes"/>
			<point x="260" y="496.3486005877"/>
			<point x="275" y="608.3486005877"/>
			<point x="296" y="709.3486005877" type="curve"/>
			<point x="328" y="681.3486005877" type="line"/>
			<point x="287.9930727825" y="647.4965852498"/>
			<point x="214" y="623.3486005877"/>
			<point x="151" y="623.3486005877" type="curve" smooth="yes"/>
			<point x="81" y="623.3486005877"/>
			<point x="49" y="670.327982031"/>
			<point x="49" y="716.3486005877" type="curve" smooth="yes"/>
			<point x="49" y="749.2847708005"/>
			<point x="70" y="777.3486005877"/>
		</contour>
	</outline>
</glyph>
<glyph name="two" format="2">
	<unicode hex="0032"/>
	<advance width="700"/>
	<outline>
		<contour>
			<point x="102" y="739.496363014" type="curve" smooth="yes"/>
			<point x="200" y="808.496363014"/>
			<point x="289.2040816327" y="844.496363014"/>
			<point x="378" y="844.496363014" type="curve" smooth="yes"/>
			<point x="538" y="844.496363014"/>
			<point x="600" y="756.3787159552"/>
			<point x="600" y="630.496363014" type="curve" smooth="yes"/>
			<point x="600" y="532.0642127008"/>
			<point x="553" y="434.496363014"/>
			<point x="289" y="257.496363014" type="curve"/>
			<point x="246" y="302.496363014" type="line"/>
			<point x="272" y="295.496363014"/>
			<point x="298" y="293.496363014"/>
			<point x="323" y="293.496363014" type="curve" smooth="yes"/>
			<point x="376" y="293.496363014"/>
			<point x="454" y="305.496363014"/>
			<point x="547" y="305.496363014" type="curve" smooth="yes"/>
			<point x="649" y="305.496363014"/>
			<point x="684" y="263.0435328253"/>
			<point x="684" y="205.496363014" type="curve" smooth="yes"/>
			<point x="684" y="166.3198924258"/>
			<point x="653.4" y="131.496363014"/>
			<point x="599" y="131.496363014" type="curve" smooth="yes"/>
			<point x="366.2422907489" y="131.496363014"/>
			<point x="227.3700440529" y="111.496363014"/>
			<point x="155" y="111.496363014" type="curve" smooth="yes"/>
			<point x="84" y="111.496363014"/>
			<point x="52" y="160.496363014"/>
			<point x="52" y="228.496363014" type="curve" smooth="yes"/>
			<point x="52" y="270.496363014"/>
			<point x="67" y="288.496363014"/>
			<point x="85" y="300.496363014" type="curve" smooth="yes"/>
			<point x="329.0510847817" y="457.2732507046"/>
			<point x="427" y="542.1614573536"/>
			<point x="427" y="630.496363014" type="curve" smooth="yes"/>
			<point x="427" y="654.6834133737"/>
			<point x="412" y="669.496363014"/>
			<point x="378" y="669.496363014" type="curve" smooth="yes"/>
			<point x="264.2192982456" y="669.496363014"/>
			<point x="194" y="577.496363014"/>
			<point x="144" y="577.496363014" type="curve" smooth="yes"/>
			<point x="98" y="577.496363014"/>
			<point x="61" y="619.496363014"/>
			<point x="61" y="667.496363014" type="curve" smooth="yes"/>
			<point x="61" y="699.496363014"/>
			<point x="71" y="717.496363014"/>
		</contour>
	</outline>
</glyph>
<glyph name="three" format="2">
	<unicode hex="0033"/>
	<advance width="700"/>
	<outline>
		<contour>
			<point x="372" y="569.2073170136" type="curve" smooth="yes"/>
			<point x="536" y="569.2073170136"/>
			<point x="614" y="498.2073170136"/>
			<point x="614" y="389.2073170136" type="curve" smooth="yes"/>
			<point x="614" y="319.2073170136"/>
			<point x="570.3647598726" y="246.2668696459"/>
			<point x="423" y="222.2073170136" type="curve"/>
			<point x="417" y="261.2073170136" type="line"/>
			<point x="620" y="259.2073170136"/>
			<point x="668" y="183.1008081379"/>
			<point x="668" y="85.2073170136" type="curve" smooth="yes"/>
			<point x="668" y="-83.7926829864"/>
			<point x="488" y="-154.7926829864"/>
			<point x="257" y="-154.7926829864" type="curve"/>
			<point x="92.2" y="-154.7926829864"/>
			<point x="51" y="-100.7926829864"/>
			<point x="51" y="-21.7926829864" type="curve" smooth="yes"/>
			<point x="51" y="22.2073170136"/>
			<point x="68.2833333333" y="58.2073170136"/>
			<point x="112" y="58.2073170136" type="curve" smooth="yes"/>
			<point x="153" y="58.2073170136"/>
			<point x="156.3609022556" y="18.2073170136"/>
			<point x="230" y="18.2073170136" type="curve" smooth="yes"/>
			<point x="389" y="18.2073170136"/>
			<point x="495" y="44.2073170136"/>
			<point x="495" y="96.2073170136" type="curve" smooth="yes"/>
			<point x="495" y="129.2073170136"/>
			<point x="458" y="139.2073170136"/>
			<point x="291" y="139.2073170136" type="curve" smooth="yes"/>
			<point x="238" y="139.2073170136"/>
			<point x="211" y="185.2073170136"/>
			<point x="211" y="234.2073170136" type="curve" smooth="yes"/>
			<point x="211" y="260.2073170136"/>
			<point x="223" y="278.2073170136"/>
			<point x="253" y="284.2073170136" type="curve" smooth="yes"/>
			<point x="373" y="309.2073170136"/>
			<point x="433" y="338.2073170136"/>
			<point x="433" y="379.2073170136" type="curve" smooth="yes"/>
			<point x="433" y="397.2073170136"/>
			<point x="422" y="404.2073170136"/>
			<point x="383" y="404.2073170136" type="curve" smooth="yes"/>
			<point x="220" y="404.2073170136"/>
			<point x="180.4285714286" y="332.2073170136"/>
			<point x="120" y="332.2073170136" type="curve" smooth="yes"/>
			<point x="92" y="332.2073170136"/>
			<point x="42" y="367.2073170136"/>
			<point x="42" y="413.2073170136" type="curve" smooth="yes"/>
			<point x="42" y="476.9492524975"/>
			<point x="191.7765650081" y="569.2073170136"/>
		</contour>
	</outline>
</glyph>
<glyph name="four" format="2">
	<unicode hex="0034"/>
	<advance width="700"/>
	<outline>
		<contour>
			<point x="327" y="103.5449781913" type="curve" smooth="yes"/>
			<point x="327" y="261.2332898796"/>
			<point x="372" y="407.5449781913"/>
			<point x="372" y="505.5449781913" type="curve" smooth="yes"/>
			<point x="372" y="520.5449781913"/>
			<point x="369" y="532.5449781913"/>
			<point x="358" y="556.5449781913" type="curve"/>
			<point x="411" y="499.5449781913" type="line"/>
			<point x="316" y="440.5449781913"/>
			<point x="234" y="337.5449781913"/>
			<point x="180" y="215.5449781913" type="curve"/>
			<point x="127" y="285.5449781913" type="line"/>
			<point x="160" y="272.5449781913"/>
			<point x="168" y="269.5449781913"/>
			<point x="193" y="269.5449781913" type="curve" smooth="yes"/>
			<point x="322.15" y="269.5449781913"/>
			<point x="428.75" y="313.5449781913"/>
			<point x="603" y="313.5449781913" type="curve" smooth="yes"/>
			<point x="652" y="313.5449781913"/>
			<point x="692" y="261.5449781913"/>
			<point x="692" y="205.5449781913" type="curve" smooth="yes"/>
			<point x="692" y="167.5449781913"/>
			<point x="674" y="138.5449781913"/>
			<point x="629" y="138.5449781913" type="curve" smooth="yes"/>
			<point x="418.7700205339" y="138.5449781913"/>
			<point x="298.3470225873" y="93.5449781913"/>
			<point x="132" y="93.5449781913" type="curve" smooth="yes"/>
			<point x="61" y="93.5449781913"/>
			<point x="15" y="150.5449781913"/>
			<point x="15" y="198.5449781913" type="curve" smooth="yes"/>
			<point x="15" y="247.4804620623"/>
			<point x="22.7022043817" y="302.3826261708"/>
			<point x="73" y="383.5449781913" type="curve" smooth="yes"/>
			<point x="182" y="560.5449781913"/>
			<point x="341" y="661.5449781913"/>
			<point x="415" y="661.5449781913" type="curve" smooth="yes"/>
			<point x="508" y="661.5449781913"/>
			<point x="551" y="589.5449781913"/>
			<point x="551" y="527.5449781913" type="curve" smooth="yes"/>
			<point x="551" y="373.5449781913"/>
			<point x="502" y="258.3546167455"/>
			<point x="502" y="94.5449781913" type="curve" smooth="yes"/>
			<point x="502" y="46.5449781913"/>
			<point x="512" y="25.5449781913"/>
			<point x="512" y="-0.4550218087" type="curve" smooth="yes"/>
			<point x="512" y="-40.4550218087"/>
			<point x="476" y="-64.4550218087"/>
			<point x="422" y="-64.4550218087" type="curve" smooth="yes"/>
			<point x="354" y="-64.4550218087"/>
			<point x="327" y="-14.4550218087"/>
		</contour>
	</outline>
</glyph>
<glyph name="eight" format="2">
	<unicode hex="0038"/>
	<advance width="700"/>
	<outline>
		<contour>
			<point x="396" y="675.9248841834" type="curve" smooth="yes"/>
			<point x="238.7312883765" y="681.2023577278"/>
			<point x="206" y="666.9248841834"/>
			<point x="206" y="653.9248841834" type="curve" smooth="yes"/>
			<point x="206" y="620.4589750925"/>
			<point x="298" y="596.9248841834"/>
			<point x="412" y="558.9248841834" type="curve" smooth="yes"/>
			<point x="625.7009717466" y="487.3454324819"/>
			<point x="663" y="446.9248841834"/>
			<point x="663" y="353.9248841834" type="curve" smooth="yes"/>
			<point x="663" y="230.9248841834"/>
			<point x="568.2941176471" y="119.9248841834"/>
			<point x="318" y="119.9248841834" type="curve" smooth="yes"/>
			<point x="116.3076923077" y="119.9248841834"/>
			<point x="39.99993101" y="206.9215381684"/>
			<point x="42" y="303.9248841834" type="curve" smooth="yes"/>
			<point x="44.0001121211" y="381.9292569051"/>
			<point x="81.289040218" y="436.7769904582"/>
			<point x="306" y="553.9248841834" type="curve" smooth="yes"/>
			<point x="458.1391672542" y="632.8542265935"/>
			<point x="491.8685127595" y="671.410888607"/>
			<point x="503" y="714.9248841834" type="curve" smooth="yes"/>
			<point x="513" y="750.9248841834"/>
			<point x="528" y="773.9248841834"/>
			<point x="563" y="773.9248841834" type="curve" smooth="yes"/>
			<point x="615" y="773.9248841834"/>
			<point x="659" y="726.9248841834"/>
			<point x="659" y="666.9248841834" type="curve" smooth="yes"/>
			<point x="659" y="611.9248841834"/>
			<point x="616.013180004" y="545.2828106035"/>
			<point x="463" y="461.9248841834" type="curve" smooth="yes"/>
			<point x="235" y="336.9248841834"/>
			<point x="219" y="319.9462745577"/>
			<point x="219" y="284.9248841834" type="curve" smooth="yes"/>
			<point x="219" y="263.6895900658"/>
			<point x="218.1581885492" y="233.8023819745"/>
			<point x="239" y="189.9248841834" type="curve"/>
			<point x="144" y="315.9248841834" type="line"/>
			<point x="208.6474761064" y="290.2888160722"/>
			<point x="255.1384615385" y="290.9248841834"/>
			<point x="316" y="290.9248841834" type="curve" smooth="yes"/>
			<point x="405.935483871" y="290.9248841834"/>
			<point x="480" y="305.8281099899"/>
			<point x="480" y="356.9248841834" type="curve" smooth="yes"/>
			<point x="480" y="378.9248841834"/>
			<point x="465" y="402.9248841834"/>
			<point x="325" y="438.9248841834" type="curve" smooth="yes"/>
			<point x="80" y="502.9248841834"/>
			<point x="32" y="559.9248841834"/>
			<point x="33" y="653.9248841834" type="curve" smooth="yes"/>
			<point x="34.999984884" y="773.923977225"/>
			<point x="125.0479452055" y="842.9248841834"/>
			<point x="335" y="842.9248841834" type="curve" smooth="yes"/>
			<point x="419" y="842.9248841834"/>
			<point x="465" y="787.9248841834"/>
			<point x="463" y="736.9248841834" type="curve" smooth="yes"/>
			<point x="462" y="702.9248841834"/>
			<point x="432" y="674.9248841834"/>
		</contour>
	</outline>
</glyph>
<glyph name="nine" format="2">
	<unicode hex="0039"/>
	<advance width="700"/>
	<outline>
		<contour>
			<point x="462" y="720.1460522046" type="curve" smooth="yes"/>
			<point x="501" y="720.1460522046"/>
			<point x="518" y="753.1460522046"/>
			<point x="518" y="785.1460522046" type="curve" smooth="yes"/>
			<point x="518" y="859.1460522046"/>
			<point x="463.7033898305" y="905.1460522046"/>
			<point x="369" y="905.1460522046" type="curve" smooth="yes"/>
			<point x="140" y="905.1460522046"/>
			<point x="32" y="765.0086476244"/>
			<point x="32" y="637.1460522046" type="curve" smooth="yes"/>
			<point x="32" y="511.1365283951"/>
			<point x="107.6622222222" y="435.1460522046"/>
			<point x="256" y="435.1460522046" type="curve" smooth="yes"/>
			<point x="394.4554455446" y="435.1460522046"/>
			<point x="481.5653363309" y="485.0405717155"/>
			<point x="560" y="609.1460522046" type="curve"/>
			<point x="455" y="556.1460522046" type="line"/>
			<point x="455" y="438.2661935474"/>
			<point x="458.2370330897" y="343.5579305035"/>
			<point x="468" y="278.1460522046" type="curve" smooth="yes"/>
			<point x="477.5202892732" y="224.1977463231"/>
			<point x="521" y="186.1460522046"/>
			<point x="580" y="186.1460522046" type="curve" smooth="yes"/>
			<point x="625" y="186.1460522046"/>
			<point x="650" y="209.1460522046"/>
			<point x="650" y="262.1460522046" type="curve" smooth="yes"/>
			<point x="650" y="300.1460522046"/>
			<point x="633" y="347.1460522046"/>
			<point x="633" y="478.1460522046" type="curve" smooth="yes"/>
			<point x="633" y="530.1460522046"/>
			<point x="634" y="583.1460522046"/>
			<point x="637" y="676.1460522046" type="curve"/>
			<point x="663" y="796.1460522046"/>
			<point x="630" y="861.1460522046"/>
			<point x="533" y="861.1460522046" type="curve" smooth="yes"/>
			<point x="498" y="861.1460522046"/>
			<point x="474" y="837.1460522046"/>
			<point x="474" y="795.1460522046" type="curve" smooth="yes"/>
			<point x="474" y="647.2957848249"/>
			<point x="382" y="603.1460522046"/>
			<point x="257" y="603.1460522046" type="curve" smooth="yes"/>
			<point x="222" y="603.1460522046"/>
			<point x="205" y="620.0349410935"/>
			<point x="205" y="643.1460522046" type="curve" smooth="yes"/>
			<point x="205" y="679.782415841"/>
			<point x="248" y="734.1460522046"/>
			<point x="369" y="734.1460522046" type="curve" smooth="yes"/>
			<point x="415" y="734.1460522046"/>
			<point x="436" y="720.1460522046"/>
		</contour>
	</outline>
</glyph>
<glyph name="colon" format="2">
	<unicode hex="003A"/>
	<advance width="320"/>
	<outline>
		<contour>
			<point x="163" y="473.3196297897" type="curve" smooth="yes"/>
			<point x="240" y="473.3196297897"/>
			<point x="280" y="516.6346982829"/>
			<point x="280" y="566.3196297897" type="curve" smooth="yes"/>
			<point x="280" y="627.1767726468"/>
			<point x="241.8275862069" y="686.3196297897"/>
			<point x="145" y="686.3196297897" type="curve" smooth="yes"/>
			<point x="87.4680851064" y="686.3196297897"/>
			<point x="41" y="652.3196297897"/>
			<point x="41" y="590.3196297897" type="curve" smooth="yes"/>
			<point x="41" y="514.3196297897"/>
			<point x="86" y="473.3196297897"/>
		</contour>
		<contour>
			<point x="173" y="144.3196297897" type="curve" smooth="yes"/>
			<point x="243" y="144.3196297897"/>
			<point x="280" y="187.6346982829"/>
			<point x="280" y="237.3196297897" type="curve" smooth="yes"/>
			<point x="280" y="298.1767726468"/>
			<point x="240.6965517241" y="357.3196297897"/>
			<point x="141" y="357.3196297897" type="curve" smooth="yes"/>
			<point x="85.6808510638" y="357.3196297897"/>
			<point x="41" y="323.3196297897"/>
			<point x="41" y="261.3196297897" type="curve" smooth="yes"/>
			<point x="41" y="185.3196297897"/>
			<point x="89" y="144.3196297897"/>
		</contour>
	</outline>
</glyph>
<glyph name="C" format="2">
	<unicode hex="0043"/>
	<advance width="682"/>
	<outline>
		<contour>
			<point x="367" y="126.2223635538" type="curve" smooth="yes"/>
			<point x="545" y="126.2223635538"/>
			<point x="633" y="190.2223635538"/>
			<point x="633" y="284.2223635538" type="curve" smooth="yes"/>
			<point x="633" y="324.2223635538"/>
			<point x="616" y="355.2223635538"/>
			<point x="589" y="355.2223635538" type="curve" smooth="yes"/>
			<point x="556" y="355.2223635538"/>
			<point x="494" y="293.2223635538"/>
			<point x="378" y="293.2223635538" type="curve" smooth="yes"/>
			<point x="279" y="293.2223635538"/>
			<point x="216" y="334.2223635538"/>
			<point x="216" y="410.2223635538" type="curve" smooth="yes"/>
			<point x="216" y="530.2223635538"/>
			<point x="319" y="660.2223635538"/>
			<point x="456" y="660.2223635538" type="curve" smooth="yes"/>
			<point x="482" y="660.2223635538"/>
			<point x="487" y="653.2223635538"/>
			<point x="487" y="636.2223635538" type="curve" smooth="yes"/>
			<point x="487" y="616.2223635538"/>
			<point x="499" y="601.2223635538"/>
			<point x="522" y="601.2223635538" type="curve" smooth="yes"/>
			<point x="587" y="601.2223635538"/>
			<point x="630" y="674.2223635538"/>
			<point x="630" y="745.2223635538" type="curve" smooth="yes"/>
			<point x="630" y="807.2223635538"/>
			<point x="592" y="847.2223635538"/>
			<point x="497" y="847.2223635538" type="curve" smooth="yes"/>
			<point x="260" y="847.2223635538"/>
			<point x="41" y="642.2223635538"/>
			<point x="41" y="425.2223635538" type="curve" smooth="yes"/>
			<point x="41" y="251.2223635538"/>
			<point x="163" y="126.2223635538"/>
		</contour>
	</outline>
</glyph>
<glyph name="D" format="2">
	<unicode hex="0044"/>
	<advance width="717"/>
	<outline>
		<contour>
			<point x="227" y="181.2663816933" type="curve" smooth="yes"/>
			<point x="442" y="181.2663816933"/>
			<point x="678" y="425.2663816933"/>
			<point x="678" y="653.2663816933" type="curve" smooth="yes"/>
			<point x="678" y="794.2663816933"/>
			<point x="570" y="900.2663816933"/>
			<point x="385" y="900.2663816933" type="curve" smooth="yes"/>
			<point x="250" y="900.2663816933"/>
			<point x="52" y="844.2663816933"/>
			<point x="16" y="808.2663816933" type="curve" smooth="yes"/>
			<point x="3" y="795.2663816933"/>
			<point x="1" y="786.2663816933"/>
			<point x="1" y="769.2663816933" type="curve" smooth="yes"/>
			<point x="1" y="711.2663816933"/>
			<point x="65" y="664.2663816933"/>
			<point x="136" y="664.2663816933" type="curve" smooth="yes"/>
			<point x="198" y="664.2663816933"/>
			<point x="254" y="723.2663816933"/>
			<point x="389" y="723.2663816933" type="curve" smooth="yes"/>
			<point x="481" y="723.2663816933"/>
			<point x="502" y="697.2663816933"/>
			<point x="502" y="645.2663816933" type="curve" smooth="yes"/>
			<point x="502" y="479.2663816933"/>
			<point x="366" y="401.2663816933"/>
			<point x="172" y="336.2663816933" type="curve"/>
			<point x="272" y="300.2663816933" type="line"/>
			<point x="268" y="341.2663816933"/>
			<point x="264" y="374.2663816933"/>
			<point x="264" y="397.2663816933" type="curve" smooth="yes"/>
			<point x="264" y="456.2663816933"/>
			<point x="274" y="611.2663816933"/>
			<point x="274" y="710.2663816933" type="curve" smooth="yes"/>
			<point x="274" y="750.2663816933"/>
			<point x="236" y="782.2663816933"/>
			<point x="188" y="782.2663816933" type="curve" smooth="yes"/>
			<point x="127" y="782.2663816933"/>
			<point x="103" y="765.2663816933"/>
			<point x="100" y="723.2663816933" type="curve" smooth="yes"/>
			<point x="91" y="601.2663816933"/>
			<point x="86" y="493.2663816933"/>
			<point x="86" y="365.2663816933" type="curve" smooth="yes"/>
			<point x="86" y="274.2663816933"/>
			<point x="145" y="181.2663816933"/>
		</contour>
	</outline>
</glyph>
<glyph name="E" format="2">
	<unicode hex="0045"/>
	<advance width="704"/>
	<outline>
		<contour>
			<point x="96" y="456.000883191" type="curve" smooth="yes"/>
			<point x="74" y="370.000883191"/>
			<point x="69" y="286.000883191"/>
			<point x="69" y="226.000883191" type="curve" smooth="yes"/>
			<point x="69" y="63.000883191"/>
			<point x="163" y="-73.999116809"/>
			<point x="362" y="-73.999116809" type="curve" smooth="yes"/>
			<point x="558" y="-73.999116809"/>
			<point x="664" y="-21.999116809"/>
			<point x="664" y="72.000883191" type="curve" smooth="yes"/>
			<point x="664" y="110.000883191"/>
			<point x="651" y="134.000883191"/>
			<point x="601" y="134.000883191" type="curve" smooth="yes"/>
			<point x="559" y="134.000883191"/>
			<point x="484" y="101.000883191"/>
			<point x="362" y="101.000883191" type="curve" smooth="yes"/>
			<point x="288" y="101.000883191"/>
			<point x="245" y="155.000883191"/>
			<point x="245" y="224.000883191" type="curve" smooth="yes"/>
			<point x="245" y="335.000883191"/>
			<point x="269" y="433.000883191"/>
			<point x="269" y="475.000883191" type="curve" smooth="yes"/>
			<point x="269" y="516.000883191"/>
			<point x="225" y="539.000883191"/>
			<point x="200" y="539.000883191" type="curve" smooth="yes"/>
			<point x="149" y="539.000883191"/>
			<point x="110" y="510.000883191"/>
		</contour>
		<contour>
			<point x="202" y="168.000883191" type="curve" smooth="yes"/>
			<point x="271" y="184.000883191"/>
			<point x="344" y="197.000883191"/>
			<point x="478" y="205.000883191" type="curve" smooth="yes"/>
			<point x="534" y="209.000883191"/>
			<point x="575" y="245.000883191"/>
			<point x="575" y="311.000883191" type="curve" smooth="yes"/>
			<point x="575" y="365.000883191"/>
			<point x="559" y="377.000883191"/>
			<point x="489" y="377.000883191" type="curve" smooth="yes"/>
			<point x="349" y="372.000883191"/>
			<point x="273" y="358.000883191"/>
			<point x="208" y="343.000883191" type="curve" smooth="yes"/>
			<point x="171" y="334.000883191"/>
			<point x="143" y="297.000883191"/>
			<point x="143" y="255.000883191" type="curve" smooth="yes"/>
			<point x="143" y="202.000883191"/>
			<point x="155" y="158.000883191"/>
		</contour>
		<contour>
			<point x="181" y="435.000883191" type="curve" smooth="yes"/>
			<point x="241" y="435.000883191"/>
			<point x="429" y="478.000883191"/>
			<point x="626" y="478.000883191" type="curve" smooth="yes"/>
			<point x="657" y="478.000883191"/>
			<point x="667" y="501.000883191"/>
			<point x="667" y="530.000883191" type="curve" smooth="yes"/>
			<point x="667" y="594.000883191"/>
			<point x="601" y="645.000883191"/>
			<point x="490" y="645.000883191" type="curve" smooth="yes"/>
			<point x="404" y="645.000883191"/>
			<point x="232" y="631.000883191"/>
			<point x="91" y="585.000883191" type="curve" smooth="yes"/>
			<point x="57" y="574.000883191"/>
			<point x="50" y="555.000883191"/>
			<point x="50" y="530.000883191" type="curve" smooth="yes"/>
			<point x="50" y="479.000883191"/>
			<point x="95" y="435.000883191"/>
		</contour>
	</outline>
</glyph>
<glyph name="F" format="2">
	<unicode hex="0046"/>
	<advance width="604"/>
	<outline>
		<contour>
			<point x="262" y="465.6216785722" type="curve" smooth="yes"/>
			<point x="262" y="623.6216785722"/>
			<point x="274" y="709.6216785722"/>
			<point x="274" y="742.6216785722" type="curve" smooth="yes"/>
			<point x="274" y="773.6216785722"/>
			<point x="256" y="773.6216785722"/>
			<point x="205" y="773.6216785722" type="curve" smooth="yes"/>
			<point x="151" y="773.6216785722"/>
			<point x="118" y="750.6216785722"/>
			<point x="104" y="679.6216785722" type="curve" smooth="yes"/>
			<point x="92" y="620.6216785722"/>
			<point x="88" y="576.6216785722"/>
			<point x="88" y="489.6216785722" type="curve" smooth="yes"/>
			<point x="88" y="370.6216785722"/>
			<point x="108" y="284.6216785722"/>
			<point x="143" y="244.6216785722" type="curve" smooth="yes"/>
			<point x="182" y="197.6216785722"/>
			<point x="240" y="185.6216785722"/>
			<point x="278" y="185.6216785722" type="curve" smooth="yes"/>
			<point x="321" y="185.6216785722"/>
			<point x="334" y="199.6216785722"/>
			<point x="334" y="231.6216785722" type="curve" smooth="yes"/>
			<point x="334" y="266.6216785722"/>
			<point x="262" y="307.6216785722"/>
		</contour>
		<contour>
			<point x="525" y="731.6216785722" type="curve" smooth="yes"/>
			<point x="558" y="731.6216785722"/>
			<point x="569" y="747.6216785722"/>
			<point x="569" y="786.6216785722" type="curve" smooth="yes"/>
			<point x="569" y="856.6216785722"/>
			<point x="502" y="902.6216785722"/>
			<point x="428" y="906.6216785722" type="curve" smooth="yes"/>
			<point x="309" y="912.6216785722"/>
			<point x="163" y="872.6216785722"/>
			<point x="66" y="846.6216785722" type="curve" smooth="yes"/>
			<point x="29" y="837.6216785722"/>
			<point x="16" y="811.6216785722"/>
			<point x="16" y="789.6216785722" type="curve" smooth="yes"/>
			<point x="16" y="743.6216785722"/>
			<point x="60" y="685.6216785722"/>
			<point x="157" y="685.6216785722" type="curve" smooth="yes"/>
			<point x="201" y="685.6216785722"/>
			<point x="312" y="731.6216785722"/>
		</contour>
		<contour>
			<point x="210" y="376.6216785722" type="curve" smooth="yes"/>
			<point x="262" y="390.6216785722"/>
			<point x="375" y="409.6216785722"/>
			<point x="448" y="413.6216785722" type="curve" smooth="yes"/>
			<point x="495" y="416.6216785722"/>
			<point x="563" y="453.6216785722"/>
			<point x="563" y="530.6216785722" type="curve" smooth="yes"/>
			<point x="563" y="568.6216785722"/>
			<point x="549" y="582.6216785722"/>
			<point x="487" y="582.6216785722" type="curve" smooth="yes"/>
			<point x="378" y="577.6216785722"/>
			<point x="272" y="567.6216785722"/>
			<point x="196" y="549.6216785722" type="curve" smooth="yes"/>
			<point x="158" y="539.6216785722"/>
			<point x="117" y="488.6216785722"/>
			<point x="117" y="445.6216785722" type="curve" smooth="yes"/>
			<point x="117" y="399.6216785722"/>
			<point x="147" y="360.6216785722"/>
		</contour>
	</outline>
</glyph>
<glyph name="G" format="2">
	<unicode hex="0047"/>
	<advance width="839"/>
	<outline>
		<contour>
			<point x="435" y="75.1695723055" type="curve" smooth="yes"/>
			<point x="490" y="75.1695723055"/>
			<point x="552" y="102.1695723055"/>
			<point x="716" y="102.1695723055" type="curve" smooth="yes"/>
			<point x="782" y="102.1695723055"/>
			<point x="810" y="149.1695723055"/>
			<point x="810" y="200.1695723055" type="curve" smooth="yes"/>
			<point x="810" y="245.1695723055"/>
			<point x="791" y="268.1695723055"/>
			<point x="694" y="268.1695723055" type="curve" smooth="yes"/>
			<point x="577" y="266.1695723055"/>
			<point x="487" y="251.1695723055"/>
			<point x="407" y="227.1695723055" type="curve" smooth="yes"/>
			<point x="357" y="213.1695723055"/>
			<point x="344" y="197.1695723055"/>
			<point x="344" y="162.1695723055" type="curve" smooth="yes"/>
			<point x="344" y="112.1695723055"/>
			<point x="386" y="75.1695723055"/>
		</contour>
		<contour>
			<point x="724" y="-279.8304276945" type="curve" smooth="yes"/>
			<point x="749" y="-279.8304276945"/>
			<point x="788" y="-261.8304276945"/>
			<point x="788" y="-221.8304276945" type="curve" smooth="yes"/>
			<point x="788" y="-198.8304276945"/>
			<point x="784" y="-189.8304276945"/>
			<point x="762" y="-142.8304276945" type="curve" smooth="yes"/>
			<point x="729" y="-75.8304276945"/>
			<point x="719" y="-23.8304276945"/>
			<point x="719" y="118.1695723055" type="curve" smooth="yes"/>
			<point x="719" y="155.1695723055"/>
			<point x="689" y="177.1695723055"/>
			<point x="635" y="177.1695723055" type="curve" smooth="yes"/>
			<point x="590" y="177.1695723055"/>
			<point x="576" y="164.1695723055"/>
			<point x="551" y="125.1695723055" type="curve" smooth="yes"/>
			<point x="487" y="25.1695723055"/>
			<point x="390" y="-3.8304276945"/>
			<point x="314" y="-3.8304276945" type="curve" smooth="yes"/>
			<point x="261" y="-3.8304276945"/>
			<point x="234" y="24.1695723055"/>
			<point x="234" y="83.1695723055" type="curve" smooth="yes"/>
			<point x="234" y="193.1695723055"/>
			<point x="345" y="343.1695723055"/>
			<point x="463" y="343.1695723055" type="curve" smooth="yes"/>
			<point x="482" y="343.1695723055"/>
			<point x="488" y="334.1695723055"/>
			<point x="488" y="322.1695723055" type="curve" smooth="yes"/>
			<point x="488" y="307.1695723055"/>
			<point x="495" y="294.1695723055"/>
			<point x="523" y="294.1695723055" type="curve" smooth="yes"/>
			<point x="595" y="294.1695723055"/>
			<point x="643" y="362.4772646132"/>
			<point x="643" y="442.1695723055" type="curve" smooth="yes"/>
			<point x="643" y="496.1695723055"/>
			<point x="606" y="537.1695723055"/>
			<point x="515" y="537.1695723055" type="curve" smooth="yes"/>
			<point x="278" y="537.1695723055"/>
			<point x="45" y="308.1695723055"/>
			<point x="45" y="66.1695723055" type="curve" smooth="yes"/>
			<point x="45" y="-82.8304276945"/>
			<point x="138" y="-180.8304276945"/>
			<point x="297" y="-180.8304276945" type="curve" smooth="yes"/>
			<point x="408" y="-180.8304276945"/>
			<point x="529" y="-137.8304276945"/>
			<point x="581" y="-50.8304276945" type="curve"/>
			<point x="555" y="-46.8304276945" type="line"/>
			<point x="570" y="-139.8304276945"/>
			<point x="583" y="-181.8304276945"/>
			<point x="606" y="-221.8304276945" type="curve" smooth="yes"/>
			<point x="632" y="-262.8304276945"/>
			<point x="669" y="-279.8304276945"/>
		</contour>
	</outline>
</glyph>
<glyph name="H" format="2">
	<unicode hex="0048"/>
	<advance width="730"/>
	<outline>
		<contour>
			<point x="201" y="45.2308329108" type="curve" smooth="yes"/>
			<point x="243" y="45.2308329108"/>
			<point x="276" y="76.2308329108"/>
			<point x="276" y="113.2308329108" type="curve" smooth="yes"/>
			<point x="276" y="254.2308329108"/>
			<point x="261" y="459.2308329108"/>
			<point x="261" y="667.2308329108" type="curve" smooth="yes"/>
			<point x="261" y="734.2308329108"/>
			<point x="203" y="766.2308329108"/>
			<point x="146" y="766.2308329108" type="curve" smooth="yes"/>
			<point x="87" y="766.2308329108"/>
			<point x="62" y="747.2308329108"/>
			<point x="62" y="691.2308329108" type="curve" smooth="yes"/>
			<point x="62" y="635.2308329108"/>
			<point x="99" y="322.2308329108"/>
			<point x="91" y="176.2308329108" type="curve" smooth="yes"/>
			<point x="87" y="117.2308329108"/>
			<point x="149" y="45.2308329108"/>
		</contour>
		<contour>
			<point x="602" y="47.2308329108" type="curve" smooth="yes"/>
			<point x="643" y="47.2308329108"/>
			<point x="661" y="76.2308329108"/>
			<point x="661" y="102.2308329108" type="curve" smooth="yes"/>
			<point x="661" y="184.2308329108"/>
			<point x="643" y="233.2308329108"/>
			<point x="642" y="290.2308329108" type="curve" smooth="yes"/>
			<point x="641" y="373.2308329108"/>
			<point x="648" y="505.2308329108"/>
			<point x="648" y="611.2308329108" type="curve" smooth="yes"/>
			<point x="648" y="712.2308329108"/>
			<point x="603" y="761.2308329108"/>
			<point x="541" y="761.2308329108" type="curve" smooth="yes"/>
			<point x="507" y="761.2308329108"/>
			<point x="475" y="744.2308329108"/>
			<point x="475" y="705.2308329108" type="curve" smooth="yes"/>
			<point x="475" y="618.2308329108"/>
			<point x="460" y="487.2308329108"/>
			<point x="460" y="348.2308329108" type="curve" smooth="yes"/>
			<point x="460" y="160.2308329108"/>
			<point x="506" y="47.2308329108"/>
		</contour>
		<contour>
			<point x="206" y="333.2308329108" type="curve" smooth="yes"/>
			<point x="267" y="333.2308329108"/>
			<point x="366" y="363.2308329108"/>
			<point x="638" y="363.2308329108" type="curve" smooth="yes"/>
			<point x="669" y="363.2308329108"/>
			<point x="687" y="384.2308329108"/>
			<point x="687" y="417.2308329108" type="curve" smooth="yes"/>
			<point x="687" y="458.2308329108"/>
			<point x="644" y="526.2308329108"/>
			<point x="525" y="526.2308329108" type="curve" smooth="yes"/>
			<point x="375" y="526.2308329108"/>
			<point x="220" y="524.2308329108"/>
			<point x="77" y="480.2308329108" type="curve" smooth="yes"/>
			<point x="49" y="472.2308329108"/>
			<point x="43" y="458.2308329108"/>
			<point x="43" y="436.2308329108" type="curve" smooth="yes"/>
			<point x="43" y="386.2308329108"/>
			<point x="101" y="333.2308329108"/>
		</contour>
	</outline>
</glyph>
<glyph name="J" format="2">
	<unicode hex="004A"/>
	<advance width="655"/>
	<outline>
		<contour>
			<point x="298" y="-128.5978386624" type="curve" smooth="yes"/>
			<point x="488" y="-128.5978386624"/>
			<point x="589" y="-48.5978386624"/>
			<point x="589" y="129.4021613376" type="curve" smooth="yes"/>
			<point x="589" y="219.4021613376"/>
			<point x="550" y="385.4021613376"/>
			<point x="517" y="474.4021613376" type="curve" smooth="yes"/>
			<point x="493" y="539.4021613376"/>
			<point x="452" y="557.4021613376"/>
			<point x="377" y="559.4021613376" type="curve" smooth="yes"/>
			<point x="343" y="559.4021613376"/>
			<point x="315" y="527.4021613376"/>
			<point x="329" y="490.4021613376" type="curve" smooth="yes"/>
			<point x="368" y="397.4021613376"/>
			<point x="411" y="239.4021613376"/>
			<point x="411" y="155.4021613376" type="curve" smooth="yes"/>
			<point x="411" y="78.4021613376"/>
			<point x="383" y="44.4021613376"/>
			<point x="298" y="44.4021613376" type="curve" smooth="yes"/>
			<point x="224" y="44.4021613376"/>
			<point x="204" y="66.4021613376"/>
			<point x="204" y="87.4021613376" type="curve" smooth="yes"/>
			<point x="204" y="117.4021613376"/>
			<point x="230" y="141.4021613376"/>
			<point x="230" y="172.4021613376" type="curve" smooth="yes"/>
			<point x="230" y="199.4021613376"/>
			<point x="213" y="213.4021613376"/>
			<point x="180" y="213.4021613376" type="curve" smooth="yes"/>
			<point x="75" y="213.4021613376"/>
			<point x="35" y="115.4021613376"/>
			<point x="35" y="54.4021613376" type="curve" smooth="yes"/>
			<point x="35" y="-59.5978386624"/>
			<point x="142" y="-128.5978386624"/>
		</contour>
		<contour>
			<point x="222" y="409.4021613376" type="curve" smooth="yes"/>
			<point x="302" y="409.4021613376"/>
			<point x="429" y="427.4021613376"/>
			<point x="560" y="427.4021613376" type="curve" smooth="yes"/>
			<point x="606" y="427.4021613376"/>
			<point x="630" y="448.4021613376"/>
			<point x="630" y="487.4021613376" type="curve" smooth="yes"/>
			<point x="630" y="576.4021613376"/>
			<point x="542" y="595.4021613376"/>
			<point x="464" y="595.4021613376" type="curve" smooth="yes"/>
			<point x="364" y="595.4021613376"/>
			<point x="313" y="583.4021613376"/>
			<point x="241" y="583.4021613376" type="curve" smooth="yes"/>
			<point x="200" y="583.4021613376"/>
			<point x="160" y="596.4021613376"/>
			<point x="111" y="596.4021613376" type="curve" smooth="yes"/>
			<point x="79" y="596.4021613376"/>
			<point x="61" y="574.4021613376"/>
			<point x="61" y="540.4021613376" type="curve" smooth="yes"/>
			<point x="61" y="444.4021613376"/>
			<point x="156" y="409.4021613376"/>
		</contour>
	</outline>
</glyph>
<glyph name="M" format="2">
	<unicode hex="004D"/>
	<advance width="1046"/>
	<outline>
		<contour>
			<point x="253" y="450.9351886373" type="curve" smooth="yes"/>
			<point x="257" y="376.9351886373"/>
			<point x="186" y="337.9351886373"/>
			<point x="210" y="427.9351886373" type="curve" smooth="yes"/>
			<point x="242" y="536.9351886373"/>
			<point x="298" y="618.9351886373"/>
			<point x="365" y="618.9351886373" type="curve" smooth="yes"/>
			<point x="442" y="618.9351886373"/>
			<point x="510" y="573.9351886373"/>
			<point x="538" y="325.9351886373" type="curve" smooth="yes"/>
			<point x="547" y="264.9351886373"/>
			<point x="541" y="218.9351886373"/>
			<point x="565" y="137.9351886373" type="curve" smooth="yes"/>
			<point x="577" y="100.9351886373"/>
			<point x="497" y="156.9351886373"/>
			<point x="527" y="212.9351886373" type="curve" smooth="yes"/>
			<point x="549" y="253.9351886373"/>
			<point x="578" y="366.9351886373"/>
			<point x="607" y="460.9351886373" type="curve" smooth="yes"/>
			<point x="633" y="544.9351886373"/>
			<point x="673" y="626.9351886373"/>
			<point x="759" y="626.9351886373" type="curve" smooth="yes"/>
			<point x="840" y="626.9351886373"/>
			<point x="931" y="606.9351886373"/>
			<point x="942" y="379.9351886373" type="curve" smooth="yes"/>
			<point x="946" y="260.9351886373"/>
			<point x="966" y="100.9351886373"/>
			<point x="1003" y="0.9351886373" type="curve" smooth="yes"/>
			<point x="1019" y="-40.0648113627"/>
			<point x="1011" y="-99.0648113627"/>
			<point x="956" y="-99.0648113627" type="curve" smooth="yes"/>
			<point x="899" y="-99.0648113627"/>
			<point x="843" y="-78.0648113627"/>
			<point x="809" y="-22.0648113627" type="curve" smooth="yes"/>
			<point x="761" y="52.9351886373"/>
			<point x="763" y="216.9351886373"/>
			<point x="752" y="316.9351886373" type="curve" smooth="yes"/>
			<point x="747" y="371.9351886373"/>
			<point x="738" y="419.9351886373"/>
			<point x="711" y="464.9351886373" type="curve" smooth="yes"/>
			<point x="687" y="500.9351886373"/>
			<point x="825" y="485.9351886373"/>
			<point x="788" y="437.9351886373" type="curve" smooth="yes"/>
			<point x="747" y="385.9351886373"/>
			<point x="698" y="192.9351886373"/>
			<point x="610" y="-46.0648113627" type="curve" smooth="yes"/>
			<point x="596" y="-83.0648113627"/>
			<point x="562" y="-99.0648113627"/>
			<point x="538" y="-99.0648113627" type="curve" smooth="yes"/>
			<point x="518" y="-99.0648113627"/>
			<point x="485" y="-88.0648113627"/>
			<point x="470" y="-67.0648113627" type="curve" smooth="yes"/>
			<point x="428" y="-11.0648113627"/>
			<point x="401" y="90.9351886373"/>
			<point x="387" y="210.9351886373" type="curve" smooth="yes"/>
			<point x="378" y="285.9351886373"/>
			<point x="370" y="326.9351886373"/>
			<point x="347" y="385.9351886373" type="curve" smooth="yes"/>
			<point x="321" y="457.9351886373"/>
			<point x="404" y="453.9351886373"/>
			<point x="355" y="382.9351886373" type="curve" smooth="yes"/>
			<point x="295" y="286.9351886373"/>
			<point x="242" y="128.9351886373"/>
			<point x="242" y="-66.0648113627" type="curve" smooth="yes"/>
			<point x="242" y="-88.0648113627"/>
			<point x="215" y="-102.0648113627"/>
			<point x="191" y="-102.0648113627" type="curve" smooth="yes"/>
			<point x="72" y="-102.0648113627"/>
			<point x="67" y="47.9351886373"/>
			<point x="67" y="152.9351886373" type="curve" smooth="yes"/>
			<point x="67" y="241.9351886373"/>
			<point x="75" y="329.9351886373"/>
			<point x="75" y="408.9351886373" type="curve" smooth="yes"/>
			<point x="75" y="456.9351886373"/>
			<point x="63" y="503.9351886373"/>
			<point x="63" y="541.9351886373" type="curve" smooth="yes"/>
			<point x="63" y="559.9351886373"/>
			<point x="75" y="581.9351886373"/>
			<point x="109" y="581.9351886373" type="curve" smooth="yes"/>
			<point x="199" y="581.9351886373"/>
			<point x="253" y="510.9351886373"/>
		</contour>
	</outline>
</glyph>
<glyph name="N" format="2">
	<unicode hex="004E"/>
	<advance width="833"/>
	<outline>
		<contour>
			<point x="147" y="-154.5984246268" type="curve" smooth="yes"/>
			<point x="195" y="-154.5984246268"/>
			<point x="222" y="-132.5984246268"/>
			<point x="232" y="-95.5984246268" type="curve" smooth="yes"/>
			<point x="252" y="-22.5984246268"/>
			<point x="263" y="80.4015753732"/>
			<point x="263" y="205.4015753732" type="curve" smooth="yes"/>
			<point x="263" y="255.4015753732"/>
			<point x="261" y="283.4015753732"/>
			<point x="250" y="351.4015753732" type="curve"/>
			<point x="219" y="345.4015753732" type="line"/>
			<point x="374.3691910075" y="120.3154396828"/>
			<point x="421" y="-153.5984246268"/>
			<point x="597" y="-153.5984246268" type="curve" smooth="yes"/>
			<point x="727" y="-153.5984246268"/>
			<point x="748" y="-44.8579666115"/>
			<point x="748" y="105.4015753732" type="curve" smooth="yes"/>
			<point x="748" y="254.4015753732"/>
			<point x="727" y="331.4015753732"/>
			<point x="753" y="460.4015753732" type="curve" smooth="yes"/>
			<point x="761.9643828712" y="503.2314046465"/>
			<point x="745.7920792079" y="578.4015753732"/>
			<point x="662" y="578.4015753732" type="curve" smooth="yes"/>
			<point x="624.8387096774" y="578.4015753732"/>
			<point x="600.1069527969" y="557.8186912811"/>
			<point x="590" y="518.4015753732" type="curve" smooth="yes"/>
			<point x="553" y="380.4015753732"/>
			<point x="586" y="251.4015753732"/>
			<point x="586" y="90.4015753732" type="curve" smooth="yes"/>
			<point x="586" y="2.4015753732"/>
			<point x="549" y="-20.5984246268"/>
			<point x="526" y="-30.5984246268" type="curve"/>
			<point x="625" y="15.4015753732" type="line"/>
			<point x="495" y="99.4015753732"/>
			<point x="396" y="573.4015753732"/>
			<point x="156" y="573.4015753732" type="curve" smooth="yes"/>
			<point x="104" y="573.4015753732"/>
			<point x="77" y="541.4015753732"/>
			<point x="77" y="501.4015753732" type="curve" smooth="yes"/>
			<point x="77" y="468.4015753732"/>
			<point x="93" y="320.4015753732"/>
			<point x="93" y="205.4015753732" type="curve" smooth="yes"/>
			<point x="93" y="-3.5984246268"/>
			<point x="69" y="-34.5984246268"/>
			<point x="69" y="-90.5984246268" type="curve" smooth="yes"/>
			<point x="69" y="-123.5984246268"/>
			<point x="89" y="-154.5984246268"/>
		</contour>
	</outline>
</glyph>
<glyph name="P" format="2">
	<unicode hex="0050"/>
	<advance width="655"/>
	<outline>
		<contour>
			<point x="80" y="24.7660434741" type="curve" smooth="yes"/>
			<point x="80" y="-80.2339565259"/>
			<point x="128" y="-120.2339565259"/>
			<point x="199" y="-120.2339565259" type="curve" smooth="yes"/>
			<point x="248" y="-120.2339565259"/>
			<point x="258" y="-75.2339565259"/>
			<point x="258" y="19.7660434741" type="curve" smooth="yes"/>
			<point x="258" y="161.7660434741"/>
			<point x="214" y="255.7660434741"/>
			<point x="214" y="355.7660434741" type="curve" smooth="yes"/>
			<point x="214" y="398.7660434741"/>
			<point x="259" y="422.7660434741"/>
			<point x="348" y="422.7660434741" type="curve" smooth="yes"/>
			<point x="393" y="422.7660434741"/>
			<point x="436" y="405.7660434741"/>
			<point x="436" y="369.7660434741" type="curve" smooth="yes"/>
			<point x="436" y="307.7660434741"/>
			<point x="359" y="237.7660434741"/>
			<point x="284" y="237.7660434741" type="curve" smooth="yes"/>
			<point x="227" y="237.7660434741"/>
			<point x="215" y="255.7660434741"/>
			<point x="190" y="255.7660434741" type="curve" smooth="yes"/>
			<point x="155" y="255.7660434741"/>
			<point x="127" y="233.7660434741"/>
			<point x="127" y="192.7660434741" type="curve" smooth="yes"/>
			<point x="127" y="125.7660434741"/>
			<point x="197" y="62.7660434741"/>
			<point x="291" y="62.7660434741" type="curve" smooth="yes"/>
			<point x="464" y="62.7660434741"/>
			<point x="609" y="220.7660434741"/>
			<point x="609" y="369.7660434741" type="curve" smooth="yes"/>
			<point x="609" y="514.7660434741"/>
			<point x="491" y="597.7660434741"/>
			<point x="347" y="597.7660434741" type="curve" smooth="yes"/>
			<point x="123" y="597.7660434741"/>
			<point x="41" y="501.7660434741"/>
			<point x="41" y="355.7660434741" type="curve" smooth="yes"/>
			<point x="41" y="252.7660434741"/>
			<point x="80" y="200.7660434741"/>
		</contour>
	</outline>
</glyph>
<glyph name="Q" format="2">
	<unicode hex="0051"/>
	<advance width="764"/>
	<outline>
		<contour>
			<point x="496" y="340.4971329933" type="curve" smooth="yes"/>
			<point x="524" y="303.4971329933"/>
			<point x="560" y="169.4971329933"/>
			<point x="618" y="96.4971329933" type="curve" smooth="yes"/>
			<point x="673" y="25.4971329933"/>
			<point x="662" y="-84.5028670067"/>
			<point x="600" y="-84.5028670067" type="curve" smooth="yes"/>
			<point x="568" y="-84.5028670067"/>
			<point x="542" y="-73.5028670067"/>
			<point x="508" y="-35.5028670067" type="curve" smooth="yes"/>
			<point x="446" y="34.4971329933"/>
			<point x="397" y="199.4971329933"/>
			<point x="336" y="283.4971329933" type="curve" smooth="yes"/>
			<point x="292" y="344.4971329933"/>
			<point x="309" y="395.4971329933"/>
			<point x="368" y="395.4971329933" type="curve" smooth="yes"/>
			<point x="438" y="395.4971329933"/>
			<point x="471" y="372.4971329933"/>
		</contour>
		<contour>
			<point x="324" y="593.4971329933" type="curve" smooth="yes"/>
			<point x="249" y="559.4971329933"/>
			<point x="206" y="475.4971329933"/>
			<point x="206" y="396.4971329933" type="curve" smooth="yes"/>
			<point x="206" y="320.4971329933"/>
			<point x="254" y="249.4971329933"/>
			<point x="385" y="249.4971329933" type="curve" smooth="yes"/>
			<point x="489" y="249.4971329933"/>
			<point x="554" y="322.4971329933"/>
			<point x="554" y="398.4971329933" type="curve" smooth="yes"/>
			<point x="554" y="493.4971329933"/>
			<point x="490" y="607.4971329933"/>
			<point x="409" y="607.4971329933" type="curve" smooth="yes"/>
			<point x="364" y="607.4971329933"/>
			<point x="341" y="583.4971329933"/>
			<point x="318" y="538.4971329933" type="curve" smooth="yes"/>
			<point x="302" y="507.4971329933"/>
			<point x="287" y="497.4971329933"/>
			<point x="264" y="497.4971329933" type="curve" smooth="yes"/>
			<point x="210" y="497.4971329933"/>
			<point x="183" y="521.4971329933"/>
			<point x="183" y="580.4971329933" type="curve" smooth="yes"/>
			<point x="183" y="670.4971329933"/>
			<point x="303" y="792.4971329933"/>
			<point x="424" y="792.4971329933" type="curve" smooth="yes"/>
			<point x="589" y="792.4971329933"/>
			<point x="729" y="629.4971329933"/>
			<point x="729" y="410.4971329933" type="curve" smooth="yes"/>
			<point x="729" y="239.4971329933"/>
			<point x="600" y="74.4971329933"/>
			<point x="385" y="74.4971329933" type="curve" smooth="yes"/>
			<point x="128" y="74.4971329933"/>
			<point x="35" y="227.4971329933"/>
			<point x="35" y="396.4971329933" type="curve" smooth="yes"/>
			<point x="35" y="579.4971329933"/>
			<point x="188" y="739.4971329933"/>
			<point x="278" y="739.4971329933" type="curve" smooth="yes"/>
			<point x="317" y="739.4971329933"/>
			<point x="375" y="700.4971329933"/>
			<point x="375" y="657.4971329933" type="curve" smooth="yes"/>
			<point x="375" y="630.4971329933"/>
			<point x="370" y="614.4971329933"/>
		</contour>
	</outline>
</glyph>
<glyph name="R" format="2">
	<unicode hex="0052"/>
	<advance width="756"/>
	<outline>
		<contour>
			<point x="111" y="555.8790338381" type="curve" smooth="yes"/>
			<point x="55" y="555.8790338381"/>
			<point x="35" y="514.8790338381"/>
			<point x="48" y="468.8790338381" type="curve" smooth="yes"/>
			<point x="76" y="369.8790338381"/>
			<point x="102" y="302.8790338381"/>
			<point x="99" y="193.8790338381" type="curve"/>
			<point x="64" y="120.8790338381"/>
			<point x="48" y="55.8790338381"/>
			<point x="48" y="6.8790338381" type="curve" smooth="yes"/>
			<point x="48" y="-88.1209661619"/>
			<point x="123" y="-132.1209661619"/>
			<point x="176" y="-132.1209661619" type="curve" smooth="yes"/>
			<point x="217" y="-132.1209661619"/>
			<point x="233" y="-116.1209661619"/>
			<point x="233" y="-75.1209661619" type="curve" smooth="yes"/>
			<point x="233" y="349.8790338381"/>
			<point x="479" y="415.8790338381"/>
			<point x="508" y="415.8790338381" type="curve" smooth="yes"/>
			<point x="521" y="415.8790338381"/>
			<point x="526" y="411.8790338381"/>
			<point x="526" y="400.8790338381" type="curve" smooth="yes"/>
			<point x="526" y="358.8790338381"/>
			<point x="445" y="251.8790338381"/>
			<point x="210" y="203.8790338381" type="curve" smooth="yes"/>
			<point x="171" y="195.8790338381"/>
			<point x="156" y="117.8790338381"/>
			<point x="179" y="86.8790338381" type="curve" smooth="yes"/>
			<point x="258" y="-15.1209661619"/>
			<point x="527" y="-131.1209661619"/>
			<point x="602" y="-131.1209661619" type="curve" smooth="yes"/>
			<point x="680" y="-131.1209661619"/>
			<point x="734" y="-88.1209661619"/>
			<point x="734" y="-36.1209661619" type="curve" smooth="yes"/>
			<point x="734" y="-5.1209661619"/>
			<point x="704" y="13.8790338381"/>
			<point x="640" y="28.8790338381" type="curve" smooth="yes"/>
			<point x="570" y="45.8790338381"/>
			<point x="484" y="73.8790338381"/>
			<point x="403" y="113.8790338381" type="curve"/>
			<point x="578" y="166.8790338381"/>
			<point x="700" y="280.8790338381"/>
			<point x="700" y="409.8790338381" type="curve" smooth="yes"/>
			<point x="700" y="510.8790338381"/>
			<point x="648" y="590.8790338381"/>
			<point x="520" y="590.8790338381" type="curve" smooth="yes"/>
			<point x="403" y="590.8790338381"/>
			<point x="294" y="516.8790338381"/>
			<point x="230" y="404.8790338381" type="curve"/>
			<point x="253" y="404.8790338381" type="line"/>
			<point x="228" y="517.8790338381"/>
			<point x="192" y="555.8790338381"/>
		</contour>
	</outline>
</glyph>
<glyph name="T" format="2">
	<unicode hex="0054"/>
	<advance width="645"/>
	<outline>
		<contour>
			<point x="227" y="691.6139229944" type="curve" smooth="yes"/>
			<point x="203" y="409.6139229944"/>
			<point x="200" y="318.6139229944"/>
			<point x="229" y="208.6139229944" type="curve" smooth="yes"/>
			<point x="252" y="132.6139229944"/>
			<point x="297" y="110.6139229944"/>
			<point x="350" y="110.6139229944" type="curve" smooth="yes"/>
			<point x="391" y="110.6139229944"/>
			<point x="412" y="127.6139229944"/>
			<point x="412" y="176.6139229944" type="curve" smooth="yes"/>
			<point x="412" y="215.6139229944"/>
			<point x="382" y="290.6139229944"/>
			<point x="404" y="637.6139229944" type="curve" smooth="yes"/>
			<point x="409" y="725.6139229944"/>
			<point x="382" y="763.6139229944"/>
			<point x="299" y="763.6139229944" type="curve" smooth="yes"/>
			<point x="258" y="763.6139229944"/>
			<point x="230" y="733.6139229944"/>
		</contour>
		<contour>
			<point x="133" y="666.6139229944" type="curve" smooth="yes"/>
			<point x="244" y="655.6139229944"/>
			<point x="348" y="655.6139229944"/>
			<point x="484" y="655.6139229944" type="curve" smooth="yes"/>
			<point x="552" y="655.6139229944"/>
			<point x="623" y="689.6139229944"/>
			<point x="623" y="772.6139229944" type="curve" smooth="yes"/>
			<point x="623" y="809.6139229944"/>
			<point x="603" y="834.6139229944"/>
			<point x="561" y="834.6139229944" type="curve" smooth="yes"/>
			<point x="478" y="834.6139229944"/>
			<point x="429" y="823.6139229944"/>
			<point x="365" y="823.6139229944" type="curve" smooth="yes"/>
			<point x="273" y="823.6139229944"/>
			<point x="188" y="833.6139229944"/>
			<point x="75" y="833.6139229944" type="curve" smooth="yes"/>
			<point x="37" y="833.6139229944"/>
			<point x="22" y="806.6139229944"/>
			<point x="22" y="774.6139229944" type="curve" smooth="yes"/>
			<point x="22" y="708.6139229944"/>
			<point x="49" y="674.6139229944"/>
		</contour>
	</outline>
</glyph>
<glyph name="W" format="2">
	<unicode hex="0057"/>
	<advance width="1005"/>
	<outline>
		<contour>
			<point x="230" y="754.8295260759" type="curve" smooth="yes"/>
			<point x="227" y="804.8295260759"/>
			<point x="180" y="847.8295260759"/>
			<point x="93" y="847.8295260759" type="curve" smooth="yes"/>
			<point x="48" y="847.8295260759"/>
			<point x="31" y="811.8295260759"/>
			<point x="34" y="766.8295260759" type="curve" smooth="yes"/>
			<point x="46" y="585.8295260759"/>
			<point x="96" y="390.8295260759"/>
			<point x="163" y="219.8295260759" type="curve" smooth="yes"/>
			<point x="195" y="138.8295260759"/>
			<point x="236" y="127.8295260759"/>
			<point x="263" y="127.8295260759" type="curve" smooth="yes"/>
			<point x="306" y="127.8295260759"/>
			<point x="327" y="148.8295260759"/>
			<point x="341" y="194.8295260759" type="curve" smooth="yes"/>
			<point x="392" y="357.8295260759"/>
			<point x="448" y="487.8295260759"/>
			<point x="524" y="576.8295260759" type="curve" smooth="yes"/>
			<point x="546" y="601.8295260759"/>
			<point x="443" y="626.8295260759"/>
			<point x="466" y="595.8295260759" type="curve" smooth="yes"/>
			<point x="530" y="510.8295260759"/>
			<point x="563" y="301.8295260759"/>
			<point x="648" y="194.8295260759" type="curve" smooth="yes"/>
			<point x="687" y="145.8295260759"/>
			<point x="719" y="123.8295260759"/>
			<point x="772" y="123.8295260759" type="curve" smooth="yes"/>
			<point x="797" y="123.8295260759"/>
			<point x="823" y="134.8295260759"/>
			<point x="841" y="177.8295260759" type="curve" smooth="yes"/>
			<point x="902" y="328.8295260759"/>
			<point x="918" y="550.8295260759"/>
			<point x="960" y="694.8295260759" type="curve" smooth="yes"/>
			<point x="978" y="757.8295260759"/>
			<point x="962" y="847.8295260759"/>
			<point x="859" y="847.8295260759" type="curve" smooth="yes"/>
			<point x="831" y="847.8295260759"/>
			<point x="808" y="838.8295260759"/>
			<point x="792" y="806.8295260759" type="curve" smooth="yes"/>
			<point x="765" y="756.8295260759"/>
			<point x="743" y="502.8295260759"/>
			<point x="701" y="377.8295260759" type="curve" smooth="yes"/>
			<point x="677" y="304.8295260759"/>
			<point x="834" y="278.8295260759"/>
			<point x="786" y="342.8295260759" type="curve" smooth="yes"/>
			<point x="698" y="471.8295260759"/>
			<point x="663" y="672.8295260759"/>
			<point x="625" y="729.8295260759" type="curve" smooth="yes"/>
			<point x="598" y="770.8295260759"/>
			<point x="572" y="787.8295260759"/>
			<point x="517" y="787.8295260759" type="curve" smooth="yes"/>
			<point x="475" y="787.8295260759"/>
			<point x="442" y="766.8295260759"/>
			<point x="408" y="725.8295260759" type="curve" smooth="yes"/>
			<point x="342" y="644.8295260759"/>
			<point x="281" y="542.8295260759"/>
			<point x="219" y="363.8295260759" type="curve" smooth="yes"/>
			<point x="204" y="321.8295260759"/>
			<point x="320" y="314.8295260759"/>
			<point x="275" y="452.8295260759" type="curve" smooth="yes"/>
			<point x="247" y="547.8295260759"/>
			<point x="239" y="622.8295260759"/>
		</contour>
	</outline>
</glyph>
<glyph name="bracketright" format="2">
	<unicode hex="005D"/>
	<advance width="553"/>
	<image fileName="parenleft.png" xScale="2.5963710802" yScale="2.5963710802" xOffset="-5235.7271646197" yOffset="-485.3762351949" color="0,0,0,0.18426"/>
	<outline>
		<contour>
			<point x="97" y="70.5860873948" type="curve" smooth="yes"/>
			<point x="157" y="71.5860873948"/>
			<point x="291" y="84.5860873948"/>
			<point x="347" y="102.5860873948" type="curve"/>
			<point x="287" y="29.5860873948" type="line"/>
			<point x="329" y="262.5860873948"/>
			<point x="246" y="569.5860873948"/>
			<point x="271" y="893.5860873948" type="curve"/>
			<point x="360" y="773.5860873948" type="line"/>
			<point x="298" y="800.5860873948"/>
			<point x="243" y="808.5860873948"/>
			<point x="126" y="808.5860873948" type="curve" smooth="yes"/>
			<point x="67" y="808.5860873948"/>
			<point x="19" y="863.5860873948"/>
			<point x="20" y="923.5860873948" type="curve" smooth="yes"/>
			<point x="21" y="963.5860873948"/>
			<point x="50" y="985.5860873948"/>
			<point x="100" y="984.5860873948" type="curve" smooth="yes"/>
			<point x="156" y="983.5860873948"/>
			<point x="229" y="970.5860873948"/>
			<point x="292" y="970.5860873948" type="curve" smooth="yes"/>
			<point x="312" y="970.5860873948"/>
			<point x="332" y="975.5860873948"/>
			<point x="350" y="975.5860873948" type="curve" smooth="yes"/>
			<point x="407" y="975.5860873948"/>
			<point x="451" y="936.5860873948"/>
			<point x="447" y="879.5860873948" type="curve" smooth="yes"/>
			<point x="420" y="549.5860873948"/>
			<point x="503" y="235.5860873948"/>
			<point x="461" y="-2.4139126052" type="curve" smooth="yes"/>
			<point x="455" y="-34.4139126052"/>
			<point x="432" y="-60.4139126052"/>
			<point x="401" y="-70.4139126052" type="curve" smooth="yes"/>
			<point x="344" y="-88.4139126052"/>
			<point x="209" y="-104.4139126052"/>
			<point x="149" y="-105.4139126052" type="curve" smooth="yes"/>
			<point x="81" y="-106.4139126052"/>
			<point x="21" y="-62.4139126052"/>
			<point x="20" y="-8.4139126052" type="curve" smooth="yes"/>
			<point x="19" y="33.5860873948"/>
			<point x="55" y="69.5860873948"/>
		</contour>
	</outline>
</glyph>
<glyph name="a" format="2">
	<unicode hex="0061"/>
	<advance width="704"/>
	<outline>
		<contour>
			<point x="362" y="588.610020386" type="curve" smooth="yes"/>
			<point x="367" y="622.610020386"/>
			<point x="399" y="642.610020386"/>
			<point x="432" y="642.610020386" type="curve" smooth="yes"/>
			<point x="489" y="642.610020386"/>
			<point x="533" y="609.610020386"/>
			<point x="550" y="568.610020386" type="curve" smooth="yes"/>
			<point x="590" y="481.610020386"/>
			<point x="606" y="419.610020386"/>
			<point x="677" y="343.610020386" type="curve" smooth="yes"/>
			<point x="716" y="301.610020386"/>
			<point x="678" y="189.610020386"/>
			<point x="602" y="189.610020386" type="curve" smooth="yes"/>
			<point x="577" y="189.610020386"/>
			<point x="561" y="200.610020386"/>
			<point x="551" y="212.610020386" type="curve" smooth="yes"/>
			<point x="493" y="283.610020386"/>
			<point x="462" y="337.610020386"/>
			<point x="423" y="445.610020386" type="curve"/>
			<point x="483" y="451.610020386" type="line"/>
			<point x="423" y="248.610020386"/>
			<point x="315" y="186.610020386"/>
			<point x="207" y="186.610020386" type="curve" smooth="yes"/>
			<point x="99" y="186.610020386"/>
			<point x="25" y="247.610020386"/>
			<point x="25" y="339.610020386" type="curve" smooth="yes"/>
			<point x="25" y="514.610020386"/>
			<point x="186" y="722.610020386"/>
			<point x="337" y="722.610020386" type="curve" smooth="yes"/>
			<point x="393" y="722.610020386"/>
			<point x="437" y="684.610020386"/>
			<point x="437" y="616.610020386" type="curve" smooth="yes"/>
			<point x="437" y="593.610020386"/>
			<point x="422" y="581.610020386"/>
			<point x="405" y="577.610020386" type="curve" smooth="yes"/>
			<point x="281" y="554.610020386"/>
			<point x="192" y="438.610020386"/>
			<point x="192" y="323.610020386" type="curve" smooth="yes"/>
			<point x="192" y="304.610020386"/>
			<point x="194" y="291.610020386"/>
			<point x="201" y="269.610020386" type="curve"/>
			<point x="127" y="383.610020386" type="line"/>
			<point x="160" y="360.610020386"/>
			<point x="182" y="354.610020386"/>
			<point x="214" y="354.610020386" type="curve" smooth="yes"/>
			<point x="276" y="354.610020386"/>
			<point x="339" y="434.610020386"/>
		</contour>
	</outline>
</glyph>
<glyph name="b" format="2">
	<unicode hex="0062"/>
	<advance width="635"/>
	<outline>
		<contour>
			<point x="222" y="621.9050379329" type="curve" smooth="yes"/>
			<point x="222" y="575.9050379329"/>
			<point x="205" y="493.9050379329"/>
			<point x="205" y="408.9050379329" type="curve" smooth="yes"/>
			<point x="205" y="356.9050379329"/>
			<point x="202" y="324.9050379329"/>
			<point x="209" y="274.9050379329" type="curve" smooth="yes"/>
			<point x="213" y="246.9050379329"/>
			<point x="152" y="279.9050379329"/>
			<point x="168" y="315.9050379329" type="curve" smooth="yes"/>
			<point x="196" y="377.9050379329"/>
			<point x="283" y="455.9050379329"/>
			<point x="386" y="455.9050379329" type="curve" smooth="yes"/>
			<point x="501" y="455.9050379329"/>
			<point x="597" y="389.9050379329"/>
			<point x="597" y="233.9050379329" type="curve" smooth="yes"/>
			<point x="597" y="49.9050379329"/>
			<point x="410" y="-81.0949620671"/>
			<point x="220" y="-81.0949620671" type="curve" smooth="yes"/>
			<point x="135" y="-81.0949620671"/>
			<point x="34" y="-51.0949620671"/>
			<point x="34" y="33.9050379329" type="curve" smooth="yes"/>
			<point x="34" y="78.9050379329"/>
			<point x="68" y="99.9050379329"/>
			<point x="118" y="99.9050379329" type="curve" smooth="yes"/>
			<point x="143" y="99.9050379329"/>
			<point x="176" y="91.9050379329"/>
			<point x="208" y="91.9050379329" type="curve" smooth="yes"/>
			<point x="287" y="91.9050379329"/>
			<point x="420" y="134.9050379329"/>
			<point x="420" y="242.9050379329" type="curve" smooth="yes"/>
			<point x="420" y="267.9050379329"/>
			<point x="411" y="281.9050379329"/>
			<point x="383" y="281.9050379329" type="curve" smooth="yes"/>
			<point x="290" y="281.9050379329"/>
			<point x="227" y="201.9050379329"/>
			<point x="203" y="86.9050379329" type="curve" smooth="yes"/>
			<point x="197" y="57.9050379329"/>
			<point x="180" y="38.9050379329"/>
			<point x="151" y="38.9050379329" type="curve" smooth="yes"/>
			<point x="113" y="38.9050379329"/>
			<point x="76" y="67.9050379329"/>
			<point x="67" y="118.9050379329" type="curve" smooth="yes"/>
			<point x="49" y="220.9050379329"/>
			<point x="38" y="330.9050379329"/>
			<point x="38" y="392.9050379329" type="curve" smooth="yes"/>
			<point x="38" y="542.9050379329"/>
			<point x="61" y="602.9050379329"/>
			<point x="54" y="679.9050379329" type="curve" smooth="yes"/>
			<point x="51" y="713.9050379329"/>
			<point x="64" y="739.9050379329"/>
			<point x="100" y="739.9050379329" type="curve" smooth="yes"/>
			<point x="161" y="739.9050379329"/>
			<point x="222" y="697.9050379329"/>
		</contour>
	</outline>
</glyph>
<glyph name="f" format="2">
	<unicode hex="0066"/>
	<advance width="452"/>
	<outline>
		<contour>
			<point x="346" y="260.9655954327" type="curve" smooth="yes"/>
			<point x="378" y="263.9655954327"/>
			<point x="393" y="289.9655954327"/>
			<point x="393" y="318.9655954327" type="curve" smooth="yes"/>
			<point x="393" y="378.9655954327"/>
			<point x="338" y="410.9655954327"/>
			<point x="297" y="410.9655954327" type="curve" smooth="yes"/>
			<point x="261" y="410.9655954327"/>
			<point x="216" y="402.9655954327"/>
			<point x="160" y="382.9655954327" type="curve" smooth="yes"/>
			<point x="113" y="365.9655954327"/>
			<point x="86" y="322.9655954327"/>
			<point x="86" y="271.9655954327" type="curve" smooth="yes"/>
			<point x="86" y="234.9655954327"/>
			<point x="124" y="208.9655954327"/>
			<point x="167" y="208.9655954327" type="curve" smooth="yes"/>
			<point x="197" y="208.9655954327"/>
			<point x="224" y="249.9655954327"/>
		</contour>
		<contour>
			<point x="190" y="-274.0344045673" type="curve" smooth="yes"/>
			<point x="238" y="-274.0344045673"/>
			<point x="261" y="-250.0344045673"/>
			<point x="261" y="-160.0344045673" type="curve" smooth="yes"/>
			<point x="261" y="67.9655954327"/>
			<point x="221" y="195.9655954327"/>
			<point x="221" y="334.9655954327" type="curve" smooth="yes"/>
			<point x="221" y="474.9655954327"/>
			<point x="239" y="506.9655954327"/>
			<point x="360" y="550.9655954327" type="curve" smooth="yes"/>
			<point x="390" y="561.9655954327"/>
			<point x="407" y="582.9655954327"/>
			<point x="407" y="617.9655954327" type="curve" smooth="yes"/>
			<point x="407" y="680.9655954327"/>
			<point x="361" y="704.9655954327"/>
			<point x="312" y="704.9655954327" type="curve"/>
			<point x="180" y="704.9655954327"/>
			<point x="52" y="570.9655954327"/>
			<point x="52" y="368.9655954327" type="curve" smooth="yes"/>
			<point x="52" y="176.9655954327"/>
			<point x="87" y="100.9655954327"/>
			<point x="87" y="-119.0344045673" type="curve" smooth="yes"/>
			<point x="87" y="-219.0344045673"/>
			<point x="138" y="-274.0344045673"/>
		</contour>
	</outline>
</glyph>
<glyph name="i" format="2">
	<unicode hex="0069"/>
	<advance width="348"/>
	<outline>
		<contour>
			<point x="182" y="159.7426850014" type="curve" smooth="yes"/>
			<point x="224" y="159.7426850014"/>
			<point x="246" y="186.7426850014"/>
			<point x="246" y="231.7426850014" type="curve" smooth="yes"/>
			<point x="246" y="300.7426850014"/>
			<point x="259" y="520.7426850014"/>
			<point x="258" y="584.7426850014" type="curve" smooth="yes"/>
			<point x="257" y="657.7426850014"/>
			<point x="219" y="695.7426850014"/>
			<point x="173" y="695.7426850014" type="curve" smooth="yes"/>
			<point x="118" y="695.7426850014"/>
			<point x="56" y="629.7426850014"/>
			<point x="56" y="555.7426850014" type="curve" smooth="yes"/>
			<point x="56" y="474.7426850014"/>
			<point x="65" y="427.7426850014"/>
			<point x="65" y="267.7426850014" type="curve" smooth="yes"/>
			<point x="65" y="210.7426850014"/>
			<point x="117" y="159.7426850014"/>
		</contour>
		<contour>
			<point x="185" y="758.7426850014" type="curve" smooth="yes"/>
			<point x="243" y="758.7426850014"/>
			<point x="265" y="795.7426850014"/>
			<point x="265" y="832.7426850014" type="curve" smooth="yes"/>
			<point x="265" y="901.7426850014"/>
			<point x="215" y="986.7426850014"/>
			<point x="130" y="986.7426850014" type="curve" smooth="yes"/>
			<point x="83" y="986.7426850014"/>
			<point x="44" y="946.7426850014"/>
			<point x="44" y="891.7426850014" type="curve" smooth="yes"/>
			<point x="44" y="822.7426850014"/>
			<point x="108" y="758.7426850014"/>
		</contour>
	</outline>
</glyph>
<glyph name="l" format="2">
	<unicode hex="006C"/>
	<advance width="403"/>
	<outline>
		<contour>
			<point x="251" y="603.2192200953" type="curve" smooth="yes"/>
			<point x="251" y="520.2192200953"/>
			<point x="229" y="424.2192200953"/>
			<point x="229" y="275.2192200953" type="curve" smooth="yes"/>
			<point x="229" y="98.2192200953"/>
			<point x="249" y="92.2192200953"/>
			<point x="273" y="92.2192200953" type="curve" smooth="yes"/>
			<point x="307" y="92.2192200953"/>
			<point x="326" y="114.2192200953"/>
			<point x="348" y="114.2192200953" type="curve" smooth="yes"/>
			<point x="382" y="114.2192200953"/>
			<point x="393" y="84.2192200953"/>
			<point x="393" y="43.2192200953" type="curve" smooth="yes"/>
			<point x="393" y="-34.7807799047"/>
			<point x="326" y="-82.7807799047"/>
			<point x="231" y="-82.7807799047" type="curve" smooth="yes"/>
			<point x="166" y="-82.7807799047"/>
			<point x="52" y="-45.7807799047"/>
			<point x="52" y="295.2192200953" type="curve" smooth="yes"/>
			<point x="52" y="441.2192200953"/>
			<point x="62" y="559.2192200953"/>
			<point x="83" y="674.2192200953" type="curve" smooth="yes"/>
			<point x="91" y="719.2192200953"/>
			<point x="114" y="738.2192200953"/>
			<point x="157" y="738.2192200953" type="curve" smooth="yes"/>
			<point x="217" y="738.2192200953"/>
			<point x="251" y="698.2192200953"/>
		</contour>
	</outline>
</glyph>
<glyph name="m" format="2">
	<unicode hex="006D"/>
	<advance width="977"/>
	<outline>
		<contour>
			<point x="221" y="313.9267080192" type="curve" smooth="yes"/>
			<point x="221" y="203.9267080192"/>
			<point x="157" y="229.9267080192"/>
			<point x="185" y="310.9267080192" type="curve" smooth="yes"/>
			<point x="209" y="378.9267080192"/>
			<point x="269" y="438.9267080192"/>
			<point x="355" y="438.9267080192" type="curve" smooth="yes"/>
			<point x="426" y="438.9267080192"/>
			<point x="458" y="389.9267080192"/>
			<point x="471" y="306.9267080192" type="curve" smooth="yes"/>
			<point x="479" y="252.9267080192"/>
			<point x="492" y="209.9267080192"/>
			<point x="505" y="184.9267080192" type="curve" smooth="yes"/>
			<point x="543" y="112.9267080192"/>
			<point x="435" y="83.9267080192"/>
			<point x="461" y="192.9267080192" type="curve" smooth="yes"/>
			<point x="499" y="355.9267080192"/>
			<point x="592" y="438.9267080192"/>
			<point x="684" y="438.9267080192" type="curve" smooth="yes"/>
			<point x="810" y="438.9267080192"/>
			<point x="864" y="352.9267080192"/>
			<point x="879" y="182.9267080192" type="curve" smooth="yes"/>
			<point x="894" y="14.9267080192"/>
			<point x="935" y="14.9267080192"/>
			<point x="935" y="-35.0732919808" type="curve" smooth="yes"/>
			<point x="935" y="-62.0732919808"/>
			<point x="913" y="-96.0732919808"/>
			<point x="874" y="-96.0732919808" type="curve" smooth="yes"/>
			<point x="785" y="-96.0732919808"/>
			<point x="732" y="-62.0732919808"/>
			<point x="715" y="66.9267080192" type="curve" smooth="yes"/>
			<point x="697" y="204.9267080192"/>
			<point x="688" y="233.9267080192"/>
			<point x="667" y="278.9267080192" type="curve" smooth="yes"/>
			<point x="644" y="327.9267080192"/>
			<point x="750" y="311.9267080192"/>
			<point x="693" y="261.9267080192" type="curve" smooth="yes"/>
			<point x="625" y="202.9267080192"/>
			<point x="594" y="95.9267080192"/>
			<point x="558" y="-37.0732919808" type="curve" smooth="yes"/>
			<point x="549" y="-76.0732919808"/>
			<point x="520" y="-96.0732919808"/>
			<point x="481" y="-96.0732919808" type="curve" smooth="yes"/>
			<point x="395" y="-96.0732919808"/>
			<point x="361" y="-29.0732919808"/>
			<point x="349" y="73.9267080192" type="curve" smooth="yes"/>
			<point x="335" y="189.9267080192"/>
			<point x="325" y="239.9267080192"/>
			<point x="294" y="281.9267080192" type="curve" smooth="yes"/>
			<point x="274" y="308.9267080192"/>
			<point x="341" y="293.9267080192"/>
			<point x="323" y="256.9267080192" type="curve" smooth="yes"/>
			<point x="273" y="159.9267080192"/>
			<point x="256" y="64.9267080192"/>
			<point x="244" y="-45.0732919808" type="curve" smooth="yes"/>
			<point x="240" y="-78.0732919808"/>
			<point x="218" y="-96.0732919808"/>
			<point x="172" y="-96.0732919808" type="curve" smooth="yes"/>
			<point x="79" y="-96.0732919808"/>
			<point x="52" y="2.9267080192"/>
			<point x="52" y="102.9267080192" type="curve" smooth="yes"/>
			<point x="52" y="165.9267080192"/>
			<point x="62" y="234.9267080192"/>
			<point x="62" y="296.9267080192" type="curve" smooth="yes"/>
			<point x="62" y="324.9267080192"/>
			<point x="57" y="349.9267080192"/>
			<point x="57" y="373.9267080192" type="curve" smooth="yes"/>
			<point x="57" y="396.9267080192"/>
			<point x="73" y="417.9267080192"/>
			<point x="105" y="417.9267080192" type="curve" smooth="yes"/>
			<point x="187" y="417.9267080192"/>
			<point x="221" y="350.9267080192"/>
		</contour>
	</outline>
</glyph>
<glyph name="n" format="2">
	<unicode hex="006E"/>
	<advance width="707"/>
	<outline>
		<contour>
			<point x="585" y="-95.2193466496" type="curve" smooth="yes"/>
			<point x="624" y="-95.2193466496"/>
			<point x="667" y="-56.2193466496"/>
			<point x="667" y="-2.2193466496" type="curve" smooth="yes"/>
			<point x="667" y="22.7806533504"/>
			<point x="660" y="39.7806533504"/>
			<point x="642" y="54.7806533504" type="curve" smooth="yes"/>
			<point x="601" y="88.7806533504"/>
			<point x="594" y="153.7806533504"/>
			<point x="594" y="284.7806533504" type="curve" smooth="yes"/>
			<point x="594" y="370.7806533504"/>
			<point x="533" y="438.7806533504"/>
			<point x="439" y="438.7806533504" type="curve" smooth="yes"/>
			<point x="341" y="438.7806533504"/>
			<point x="234" y="355.7806533504"/>
			<point x="167" y="166.7806533504" type="curve"/>
			<point x="217" y="100.7806533504" type="line"/>
			<point x="217" y="239.7806533504"/>
			<point x="244" y="255.7806533504"/>
			<point x="244" y="326.7806533504" type="curve" smooth="yes"/>
			<point x="244" y="391.7806533504"/>
			<point x="182" y="425.7806533504"/>
			<point x="141" y="425.7806533504" type="curve" smooth="yes"/>
			<point x="104" y="425.7806533504"/>
			<point x="84" y="404.7806533504"/>
			<point x="84" y="375.7806533504" type="curve" smooth="yes"/>
			<point x="84" y="252.7806533504"/>
			<point x="55" y="200.7806533504"/>
			<point x="55" y="65.7806533504" type="curve" smooth="yes"/>
			<point x="55" y="-27.2193466496"/>
			<point x="85" y="-94.2193466496"/>
			<point x="145" y="-94.2193466496" type="curve" smooth="yes"/>
			<point x="191" y="-94.2193466496"/>
			<point x="216" y="-79.2193466496"/>
			<point x="229" y="-35.2193466496" type="curve" smooth="yes"/>
			<point x="282" y="141.7806533504"/>
			<point x="374" y="271.7806533504"/>
			<point x="425" y="271.7806533504" type="curve" smooth="yes"/>
			<point x="443" y="271.7806533504"/>
			<point x="456" y="260.7806533504"/>
			<point x="483" y="231.7806533504" type="curve"/>
			<point x="488" y="288.7806533504"/>
			<point x="457" y="290.7806533504"/>
			<point x="404" y="293.7806533504" type="curve"/>
			<point x="437" y="278.7806533504"/>
			<point x="438" y="255.7806533504"/>
			<point x="438" y="213.7806533504" type="curve" smooth="yes"/>
			<point x="438" y="9.7806533504"/>
			<point x="493" y="-95.2193466496"/>
		</contour>
	</outline>
</glyph>
<glyph name="o" format="2">
	<unicode hex="006F"/>
	<advance width="678"/>
	<outline>
		<contour>
			<point x="354" y="76.2757046569" type="curve" smooth="yes"/>
			<point x="513" y="76.2757046569"/>
			<point x="634" y="196.2757046569"/>
			<point x="634" y="354.2757046569" type="curve" smooth="yes"/>
			<point x="634" y="508.2757046569"/>
			<point x="530" y="604.2757046569"/>
			<point x="350" y="604.2757046569" type="curve" smooth="yes"/>
			<point x="265" y="604.2757046569"/>
			<point x="170" y="516.2757046569"/>
			<point x="170" y="433.2757046569" type="curve" smooth="yes"/>
			<point x="170" y="373.2757046569"/>
			<point x="195" y="357.2757046569"/>
			<point x="220" y="357.2757046569" type="curve" smooth="yes"/>
			<point x="252" y="357.2757046569"/>
			<point x="269" y="367.2757046569"/>
			<point x="297" y="395.2757046569" type="curve" smooth="yes"/>
			<point x="322" y="420.2757046569"/>
			<point x="336" y="435.2757046569"/>
			<point x="362" y="435.2757046569" type="curve" smooth="yes"/>
			<point x="422" y="435.2757046569"/>
			<point x="464" y="400.2757046569"/>
			<point x="464" y="346.2757046569" type="curve" smooth="yes"/>
			<point x="464" y="284.2757046569"/>
			<point x="416" y="242.2757046569"/>
			<point x="349" y="242.2757046569" type="curve" smooth="yes"/>
			<point x="267" y="242.2757046569"/>
			<point x="215" y="284.2757046569"/>
			<point x="215" y="347.2757046569" type="curve" smooth="yes"/>
			<point x="215" y="386.2757046569"/>
			<point x="257" y="424.2757046569"/>
			<point x="296" y="436.2757046569" type="curve" smooth="yes"/>
			<point x="364" y="457.2757046569"/>
			<point x="381" y="500.2757046569"/>
			<point x="381" y="554.2757046569" type="curve" smooth="yes"/>
			<point x="381" y="599.2757046569"/>
			<point x="343" y="617.2757046569"/>
			<point x="304" y="617.2757046569" type="curve" smooth="yes"/>
			<point x="178" y="617.2757046569"/>
			<point x="44" y="483.2757046569"/>
			<point x="44" y="354.2757046569" type="curve" smooth="yes"/>
			<point x="44" y="192.2757046569"/>
			<point x="174" y="76.2757046569"/>
		</contour>
	</outline>
</glyph>
<glyph name="w" format="2">
	<unicode hex="0077"/>
	<advance width="917"/>
	<outline>
		<contour>
			<point x="172" y="340.0198054897" type="curve" smooth="yes"/>
			<point x="218" y="246.0198054897"/>
			<point x="213" y="104.0198054897"/>
			<point x="280" y="34.0198054897" type="curve" smooth="yes"/>
			<point x="303" y="10.0198054897"/>
			<point x="201" y="12.0198054897"/>
			<point x="216" y="33.0198054897" type="curve" smooth="yes"/>
			<point x="258" y="99.0198054897"/>
			<point x="260" y="131.0198054897"/>
			<point x="301" y="239.0198054897" type="curve" smooth="yes"/>
			<point x="338" y="337.0198054897"/>
			<point x="372" y="397.0198054897"/>
			<point x="442" y="397.0198054897" type="curve" smooth="yes"/>
			<point x="516" y="397.0198054897"/>
			<point x="557" y="342.0198054897"/>
			<point x="592" y="252.0198054897" type="curve" smooth="yes"/>
			<point x="639" y="130.0198054897"/>
			<point x="631" y="70.0198054897"/>
			<point x="691" y="43.0198054897" type="curve" smooth="yes"/>
			<point x="749" y="18.0198054897"/>
			<point x="606" y="-2.9801945103"/>
			<point x="635" y="31.0198054897" type="curve" smooth="yes"/>
			<point x="682" y="86.0198054897"/>
			<point x="688" y="238.0198054897"/>
			<point x="720" y="313.0198054897" type="curve" smooth="yes"/>
			<point x="736" y="350.0198054897"/>
			<point x="771" y="399.0198054897"/>
			<point x="826" y="399.0198054897" type="curve" smooth="yes"/>
			<point x="874" y="399.0198054897"/>
			<point x="918" y="352.0198054897"/>
			<point x="918" y="303.0198054897" type="curve" smooth="yes"/>
			<point x="918" y="282.0198054897"/>
			<point x="907" y="262.0198054897"/>
			<point x="892" y="244.0198054897" type="curve" smooth="yes"/>
			<point x="845" y="186.0198054897"/>
			<point x="838" y="109.0198054897"/>
			<point x="816" y="28.0198054897" type="curve" smooth="yes"/>
			<point x="780" y="-109.9801945103"/>
			<point x="726" y="-141.9801945103"/>
			<point x="682" y="-141.9801945103" type="curve" smooth="yes"/>
			<point x="632" y="-141.9801945103"/>
			<point x="592" y="-117.9801945103"/>
			<point x="549" y="-46.9801945103" type="curve" smooth="yes"/>
			<point x="484" y="60.0198054897"/>
			<point x="472" y="182.0198054897"/>
			<point x="437" y="223.0198054897" type="curve" smooth="yes"/>
			<point x="414" y="248.0198054897"/>
			<point x="488" y="253.0198054897"/>
			<point x="463" y="222.0198054897" type="curve" smooth="yes"/>
			<point x="416" y="157.0198054897"/>
			<point x="409" y="54.0198054897"/>
			<point x="357" y="-56.9801945103" type="curve" smooth="yes"/>
			<point x="332" y="-112.9801945103"/>
			<point x="293" y="-143.9801945103"/>
			<point x="253" y="-143.9801945103" type="curve" smooth="yes"/>
			<point x="172" y="-143.9801945103"/>
			<point x="122" y="-83.9801945103"/>
			<point x="84" y="53.0198054897" type="curve" smooth="yes"/>
			<point x="52" y="169.0198054897"/>
			<point x="35" y="230.0198054897"/>
			<point x="12" y="276.0198054897" type="curve" smooth="yes"/>
			<point x="-30" y="351.0198054897"/>
			<point x="16" y="400.0198054897"/>
			<point x="80" y="400.0198054897" type="curve" smooth="yes"/>
			<point x="124" y="400.0198054897"/>
			<point x="148" y="388.0198054897"/>
		</contour>
	</outline>
</glyph>
<glyph name="x" format="2">
	<unicode hex="0078"/>
	<advance width="589"/>
	<outline>
		<contour>
			<point x="509" y="444.642950661" type="curve" smooth="yes"/>
			<point x="364" y="357.642950661"/>
			<point x="225" y="214.642950661"/>
			<point x="181" y="16.642950661" type="curve" smooth="yes"/>
			<point x="169" y="-35.357049339"/>
			<point x="140" y="-77.357049339"/>
			<point x="103" y="-77.357049339" type="curve" smooth="yes"/>
			<point x="74" y="-77.357049339"/>
			<point x="35" y="-62.357049339"/>
			<point x="35" y="29.642950661" type="curve" smooth="yes"/>
			<point x="35" y="194.642950661"/>
			<point x="198" y="455.642950661"/>
			<point x="376" y="569.642950661" type="curve" smooth="yes"/>
			<point x="412" y="592.642950661"/>
			<point x="449" y="604.642950661"/>
			<point x="466" y="604.642950661" type="curve" smooth="yes"/>
			<point x="520" y="604.642950661"/>
			<point x="543" y="568.642950661"/>
			<point x="543" y="502.642950661" type="curve" smooth="yes"/>
			<point x="543" y="476.642950661"/>
			<point x="535" y="460.642950661"/>
		</contour>
		<contour>
			<point x="520" y="225.642950661" type="curve" smooth="yes"/>
			<point x="561" y="167.642950661"/>
			<point x="567" y="140.642950661"/>
			<point x="567" y="121.642950661" type="curve" smooth="yes"/>
			<point x="567" y="84.642950661"/>
			<point x="537" y="63.642950661"/>
			<point x="481" y="63.642950661" type="curve" smooth="yes"/>
			<point x="459" y="63.642950661"/>
			<point x="425" y="71.642950661"/>
			<point x="388" y="122.642950661" type="curve" smooth="yes"/>
			<point x="319" y="218.642950661"/>
			<point x="164" y="355.642950661"/>
			<point x="87" y="432.642950661" type="curve" smooth="yes"/>
			<point x="57" y="461.642950661"/>
			<point x="40" y="483.642950661"/>
			<point x="40" y="524.642950661" type="curve" smooth="yes"/>
			<point x="40" y="557.642950661"/>
			<point x="61" y="604.642950661"/>
			<point x="102" y="604.642950661" type="curve" smooth="yes"/>
			<point x="114" y="604.642950661"/>
			<point x="139" y="607.642950661"/>
			<point x="179" y="576.642950661" type="curve" smooth="yes"/>
			<point x="250" y="523.642950661"/>
			<point x="455" y="314.642950661"/>
		</contour>
	</outline>
</glyph>
<glyph name="z" format="2">
	<unicode hex="007A"/>
	<advance width="633"/>
	<outline>
		<contour>
			<point x="92" y="648.0797399248" type="curve" smooth="yes"/>
			<point x="169" y="661.0797399248"/>
			<point x="249" y="668.0797399248"/>
			<point x="325" y="668.0797399248" type="curve" smooth="yes"/>
			<point x="477" y="668.0797399248"/>
			<point x="523" y="593.0797399248"/>
			<point x="523" y="518.0797399248" type="curve" smooth="yes"/>
			<point x="523" y="458.4888308339"/>
			<point x="450" y="345.0797399248"/>
			<point x="203" y="294.0797399248" type="curve"/>
			<point x="255" y="324.0797399248" type="line"/>
			<point x="248" y="309.0797399248"/>
			<point x="248" y="300.0797399248"/>
			<point x="253" y="300.0797399248" type="curve" smooth="yes"/>
			<point x="328" y="300.0797399248"/>
			<point x="389" y="316.0797399248"/>
			<point x="483" y="316.0797399248" type="curve" smooth="yes"/>
			<point x="547" y="316.0797399248"/>
			<point x="584" y="265.0797399248"/>
			<point x="584" y="204.0797399248" type="curve" smooth="yes"/>
			<point x="584" y="168.0797399248"/>
			<point x="565" y="144.0797399248"/>
			<point x="520" y="144.0797399248" type="curve" smooth="yes"/>
			<point x="440" y="144.0797399248"/>
			<point x="318" y="134.0797399248"/>
			<point x="223" y="134.0797399248" type="curve" smooth="yes"/>
			<point x="80" y="134.0797399248"/>
			<point x="44" y="201.4547399248"/>
			<point x="44" y="274.0797399248" type="curve" smooth="yes"/>
			<point x="44" y="342.0797399248"/>
			<point x="73" y="370.0797399248"/>
			<point x="106" y="379.0797399248" type="curve" smooth="yes"/>
			<point x="279.102004904" y="428.6820688154"/>
			<point x="330.9287767975" y="474.9372935198"/>
			<point x="359" y="531.0797399248" type="curve"/>
			<point x="401" y="480.0797399248" type="line"/>
			<point x="373" y="494.0797399248"/>
			<point x="360" y="499.0797399248"/>
			<point x="302" y="499.0797399248" type="curve" smooth="yes"/>
			<point x="203" y="499.0797399248"/>
			<point x="150" y="476.0797399248"/>
			<point x="119" y="476.0797399248" type="curve" smooth="yes"/>
			<point x="80" y="476.0797399248"/>
			<point x="40" y="529.0797399248"/>
			<point x="40" y="584.0797399248" type="curve" smooth="yes"/>
			<point x="40" y="617.0797399248"/>
			<point x="51" y="639.0797399248"/>
		</contour>
	</outline>
</glyph>
<glyph name="section" format="2">
	<unicode hex="00A7"/>
	<advance width="603"/>
	<outline>
		<contour>
			<point x="262" y="-72.1452214428" type="curve" smooth="yes"/>
			<point x="459" y="-72.1452214428"/>
			<point x="556" y="-17.1452214428"/>
			<point x="556" y="104.8547785572" type="curve" smooth="yes"/>
			<point x="556" y="298.8547785572"/>
			<point x="208" y="315.8547785572"/>
			<point x="208" y="397.8547785572" type="curve" smooth="yes"/>
			<point x="208" y="422.8547785572"/>
			<point x="247" y="453.8547785572"/>
			<point x="332" y="461.8547785572" type="curve"/>
			<point x="238" y="546.8547785572" type="line"/>
			<point x="116" y="532.8547785572"/>
			<point x="47" y="478.8547785572"/>
			<point x="47" y="391.8547785572" type="curve" smooth="yes"/>
			<point x="47" y="193.8547785572"/>
			<point x="342" y="172.8547785572"/>
			<point x="375" y="108.8547785572" type="curve"/>
			<point x="330" y="97.8547785572"/>
			<point x="304" y="94.8547785572"/>
			<point x="241" y="94.8547785572" type="curve" smooth="yes"/>
			<point x="166" y="94.8547785572"/>
			<point x="148" y="121.8547785572"/>
			<point x="112" y="121.8547785572" type="curve" smooth="yes"/>
			<point x="70" y="121.8547785572"/>
			<point x="60" y="100.8547785572"/>
			<point x="60" y="65.8547785572" type="curve" smooth="yes"/>
			<point x="60" y="-4.1452214428"/>
			<point x="131" y="-72.1452214428"/>
		</contour>
		<contour>
			<point x="372" y="229.8547785572" type="line"/>
			<point x="495" y="229.8547785572"/>
			<point x="566" y="287.8547785572"/>
			<point x="566" y="375.8547785572" type="curve" smooth="yes"/>
			<point x="566" y="555.8547785572"/>
			<point x="236" y="577.8547785572"/>
			<point x="236" y="638.8547785572" type="curve" smooth="yes"/>
			<point x="236" y="668.8547785572"/>
			<point x="341" y="702.8547785572"/>
			<point x="490" y="733.8547785572" type="curve" smooth="yes"/>
			<point x="522" y="739.8547785572"/>
			<point x="544" y="768.8547785572"/>
			<point x="544" y="802.8547785572" type="curve" smooth="yes"/>
			<point x="544" y="851.8547785572"/>
			<point x="520" y="897.8547785572"/>
			<point x="448" y="897.8547785572" type="curve" smooth="yes"/>
			<point x="325" y="897.8547785572"/>
			<point x="57" y="799.8547785572"/>
			<point x="57" y="642.8547785572" type="curve" smooth="yes"/>
			<point x="57" y="444.8547785572"/>
			<point x="372" y="424.8547785572"/>
			<point x="405" y="369.8547785572" type="curve"/>
			<point x="381" y="340.8547785572"/>
			<point x="338" y="325.8547785572"/>
			<point x="256" y="320.8547785572" type="curve"/>
		</contour>
	</outline>
</glyph>
<glyph name="copyright" format="2">
	<unicode hex="00A9"/>
	<advance width="965"/>
	<outline>
		<contour>
			<point x="358" y="684.7232136053" type="curve" smooth="yes"/>
			<point x="240" y="614.7232136053"/>
			<point x="198" y="527.7232136053"/>
			<point x="198" y="412.7232136053" type="curve" smooth="yes"/>
			<point x="198" y="291.7232136053"/>
			<point x="275" y="189.7232136053"/>
			<point x="449" y="189.7232136053" type="curve" smooth="yes"/>
			<point x="657" y="189.7232136053"/>
			<point x="776" y="307.7232136053"/>
			<point x="776" y="513.7232136053" type="curve" smooth="yes"/>
			<point x="776" y="664.7232136053"/>
			<point x="707" y="759.7232136053"/>
			<point x="534" y="758.7232136053" type="curve" smooth="yes"/>
			<point x="391" y="757.7232136053"/>
			<point x="332" y="705.7232136053"/>
			<point x="265" y="654.7232136053" type="curve" smooth="yes"/>
			<point x="244" y="638.7232136053"/>
			<point x="217" y="627.7232136053"/>
			<point x="192" y="627.7232136053" type="curve" smooth="yes"/>
			<point x="150" y="627.7232136053"/>
			<point x="135" y="647.7232136053"/>
			<point x="135" y="681.7232136053" type="curve" smooth="yes"/>
			<point x="135" y="747.7232136053"/>
			<point x="293" y="885.7232136053"/>
			<point x="533" y="885.7232136053" type="curve" smooth="yes"/>
			<point x="790" y="885.7232136053"/>
			<point x="915" y="739.7232136053"/>
			<point x="915" y="530.7232136053" type="curve" smooth="yes"/>
			<point x="915" y="217.7232136053"/>
			<point x="704" y="63.7232136053"/>
			<point x="456" y="63.7232136053" type="curve" smooth="yes"/>
			<point x="219" y="63.7232136053"/>
			<point x="60" y="164.7232136053"/>
			<point x="60" y="398.7232136053" type="curve" smooth="yes"/>
			<point x="60" y="657.7232136053"/>
			<point x="276" y="792.7232136053"/>
			<point x="367" y="792.7232136053" type="curve" smooth="yes"/>
			<point x="395" y="792.7232136053"/>
			<point x="408" y="781.7232136053"/>
			<point x="408" y="758.7232136053" type="curve" smooth="yes"/>
			<point x="408" y="733.7232136053"/>
			<point x="394" y="704.7232136053"/>
		</contour>
		<contour>
			<point x="480" y="259.7232136053" type="curve" smooth="yes"/>
			<point x="585" y="259.7232136053"/>
			<point x="640" y="292.7232136053"/>
			<point x="640" y="385.7232136053" type="curve" smooth="yes"/>
			<point x="640" y="419.7232136053"/>
			<point x="627" y="444.7232136053"/>
			<point x="605" y="444.7232136053" type="curve" smooth="yes"/>
			<point x="588" y="444.7232136053"/>
			<point x="548" y="408.7232136053"/>
			<point x="494" y="408.7232136053" type="curve" smooth="yes"/>
			<point x="452" y="408.7232136053"/>
			<point x="427" y="419.7232136053"/>
			<point x="427" y="444.7232136053" type="curve" smooth="yes"/>
			<point x="427" y="477.7232136053"/>
			<point x="469" y="518.7232136053"/>
			<point x="520" y="518.7232136053" type="curve" smooth="yes"/>
			<point x="529" y="518.7232136053"/>
			<point x="535" y="511.7232136053"/>
			<point x="538" y="501.7232136053" type="curve" smooth="yes"/>
			<point x="541" y="491.7232136053"/>
			<point x="548" y="483.7232136053"/>
			<point x="558" y="483.7232136053" type="curve" smooth="yes"/>
			<point x="612" y="483.7232136053"/>
			<point x="651" y="549.7232136053"/>
			<point x="651" y="604.7232136053" type="curve" smooth="yes"/>
			<point x="651" y="652.7232136053"/>
			<point x="622" y="685.7232136053"/>
			<point x="545" y="685.7232136053" type="curve" smooth="yes"/>
			<point x="418" y="685.7232136053"/>
			<point x="288" y="559.7232136053"/>
			<point x="288" y="426.7232136053" type="curve" smooth="yes"/>
			<point x="288" y="327.7232136053"/>
			<point x="368" y="259.7232136053"/>
		</contour>
	</outline>
</glyph>
<glyph name="quoteleft" format="2">
	<unicode hex="2018"/>
	<advance width="241"/>
	<image fileName="quoteleft.png" xScale="2.7154088417" yScale="2.7154088417" xOffset="-114.4273808669" yOffset="-445.4316255776" color="0,0,0,0.31832"/>
	<outline>
		<contour>
			<point x="169" y="737.6003918617" type="curve" smooth="yes"/>
			<point x="131" y="737.6003918617"/>
			<point x="105" y="725.6003918617"/>
			<point x="79" y="687.6003918617" type="curve" smooth="yes"/>
			<point x="38" y="628.6003918617"/>
			<point x="17" y="545.6003918617"/>
			<point x="17" y="486.6003918617" type="curve" smooth="yes"/>
			<point x="17" y="409.6003918617"/>
			<point x="52" y="339.6003918617"/>
			<point x="103" y="339.6003918617" type="curve" smooth="yes"/>
			<point x="142" y="339.6003918617"/>
			<point x="162" y="368.6003918617"/>
			<point x="172" y="417.6003918617" type="curve" smooth="yes"/>
			<point x="183" y="472.6003918617"/>
			<point x="201" y="522.6003918617"/>
			<point x="243" y="574.6003918617" type="curve" smooth="yes"/>
			<point x="257" y="592.6003918617"/>
			<point x="262" y="608.6003918617"/>
			<point x="262" y="627.6003918617" type="curve" smooth="yes"/>
			<point x="262" y="676.6003918617"/>
			<point x="227" y="737.6003918617"/>
		</contour>
	</outline>
</glyph>
<glyph name="quoteright" format="2">
	<unicode hex="2019"/>
	<advance width="271"/>
	<image fileName="quoteleft.png" xScale="2.7154088417" yScale="2.7154088417" xOffset="-2596.4273808669" yOffset="-445.4316255776" color="0,0,0,0.31832"/>
	<outline>
		<contour>
			<point x="178" y="864.5530060465" type="curve" smooth="yes"/>
			<point x="144" y="864.5530060465"/>
			<point x="125" y="850.5530060465"/>
			<point x="109" y="814.5530060465" type="curve" smooth="yes"/>
			<point x="77" y="745.5530060465"/>
			<point x="49" y="652.5530060465"/>
			<point x="49" y="584.5530060465" type="curve" smooth="yes"/>
			<point x="49" y="522.5530060465"/>
			<point x="76" y="466.5530060465"/>
			<point x="120" y="466.5530060465" type="curve" smooth="yes"/>
			<point x="159" y="466.5530060465"/>
			<point x="180" y="495.5530060465"/>
			<point x="200" y="536.5530060465" type="curve" smooth="yes"/>
			<point x="221" y="581.5530060465"/>
			<point x="247" y="622.5530060465"/>
			<point x="273" y="694.5530060465" type="curve" smooth="yes"/>
			<point x="284" y="724.5530060465"/>
			<point x="289" y="745.5530060465"/>
			<point x="289" y="768.5530060465" type="curve" smooth="yes"/>
			<point x="289" y="813.5530060465"/>
			<point x="230" y="864.5530060465"/>
		</contour>
	</outline>
</glyph>
<glyph name="dagger" format="2">
	<unicode hex="2020"/>
	<advance width="619"/>
	<outline>
		<contour>
			<point x="402" y="701.6611692811" type="curve" smooth="yes"/>
			<point x="402" y="598.6611692811"/>
			<point x="377" y="480.6611692811"/>
			<point x="377" y="338.6611692811" type="curve" smooth="yes"/>
			<point x="377" y="101.6611692811"/>
			<point x="403" y="35.6611692811"/>
			<point x="403" y="-56.3388307189" type="curve" smooth="yes"/>
			<point x="403" y="-114.3388307189"/>
			<point x="374" y="-142.3388307189"/>
			<point x="328" y="-142.3388307189" type="curve" smooth="yes"/>
			<point x="284" y="-142.3388307189"/>
			<point x="254" y="-113.3388307189"/>
			<point x="242" y="-50.3388307189" type="curve" smooth="yes"/>
			<point x="216" y="85.6611692811"/>
			<point x="210" y="173.6611692811"/>
			<point x="210" y="315.6611692811" type="curve" smooth="yes"/>
			<point x="210" y="505.6611692811"/>
			<point x="240" y="606.6611692811"/>
			<point x="235" y="764.6611692811" type="curve" smooth="yes"/>
			<point x="233" y="809.6611692811"/>
			<point x="248" y="839.6611692811"/>
			<point x="297" y="839.6611692811" type="curve" smooth="yes"/>
			<point x="362" y="839.6611692811"/>
			<point x="402" y="799.6611692811"/>
		</contour>
		<contour>
			<point x="240" y="495.6611692811"/>
			<point x="166" y="437.6611692811"/>
			<point x="92" y="437.6611692811" type="curve" smooth="yes"/>
			<point x="42" y="437.6611692811"/>
			<point x="15" y="476.207680909"/>
			<point x="15" y="522.6611692811" type="curve" smooth="yes"/>
			<point x="15" y="563.120939396"/>
			<point x="27.9598329386" y="594.6519882385"/>
			<point x="98" y="610.6611692811" type="curve" smooth="yes"/>
			<point x="218" y="637.6611692811"/>
			<point x="361" y="646.6611692811"/>
			<point x="479" y="646.6611692811" type="curve" smooth="yes"/>
			<point x="558" y="646.6611692811"/>
			<point x="604" y="610.6611692811"/>
			<point x="604" y="553.6611692811" type="curve" smooth="yes"/>
			<point x="604" y="519.6611692811"/>
			<point x="589" y="495.6611692811"/>
			<point x="535" y="495.6611692811" type="curve" smooth="yes"/>
		</contour>
	</outline>
</glyph>
<glyph name="ellipsis" format="2">
	<unicode hex="2026"/>
	<advance width="921"/>
	<outline>
		<contour>
			<point x="183" y="-189.1296258577" type="curve" smooth="yes"/>
			<point x="247" y="-189.1296258577"/>
			<point x="280" y="-155.1296258577"/>
			<point x="280" y="-116.1296258577" type="curve" smooth="yes"/>
			<point x="280" y="-45.1296258577"/>
			<point x="239" y="23.8703741423"/>
			<point x="135" y="23.8703741423" type="curve" smooth="yes"/>
			<point x="83" y="23.8703741423"/>
			<point x="41" y="-10.1296258577"/>
			<point x="41" y="-72.1296258577" type="curve" smooth="yes"/>
			<point x="41" y="-151.1296258577"/>
			<point x="89" y="-189.1296258577"/>
		</contour>
		<contour>
			<point x="483" y="-189.1296258577" type="curve" smooth="yes"/>
			<point x="547" y="-189.1296258577"/>
			<point x="580" y="-155.1296258577"/>
			<point x="580" y="-116.1296258577" type="curve" smooth="yes"/>
			<point x="580" y="-45.1296258577"/>
			<point x="539" y="23.8703741423"/>
			<point x="435" y="23.8703741423" type="curve" smooth="yes"/>
			<point x="383" y="23.8703741423"/>
			<point x="341" y="-10.1296258577"/>
			<point x="341" y="-72.1296258577" type="curve" smooth="yes"/>
			<point x="341" y="-151.1296258577"/>
			<point x="389" y="-189.1296258577"/>
		</contour>
		<contour>
			<point x="783" y="-189.1296258577" type="curve" smooth="yes"/>
			<point x="847" y="-189.1296258577"/>
			<point x="880" y="-155.1296258577"/>
			<point x="880" y="-116.1296258577" type="curve" smooth="yes"/>
			<point x="880" y="-45.1296258577"/>
			<point x="839" y="23.8703741423"/>
			<point x="735" y="23.8703741423" type="curve" smooth="yes"/>
			<point x="683" y="23.8703741423"/>
			<point x="641" y="-10.1296258577"/>
			<point x="641" y="-72.1296258577" type="curve" smooth="yes"/>
			<point x="641" y="-151.1296258577"/>
			<point x="689" y="-189.1296258577"/>
		</contour>
	</outline>
</glyph>
<glyph name="second" format="2">
	<unicode hex="2033"/>
	<advance width="556"/>
	<outline>
		<contour>
			<point x="361" y="431.3460289324" type="curve" smooth="yes"/>
			<point x="401" y="431.3460289324"/>
			<point x="429" y="452.3460289324"/>
			<point x="451" y="487.3460289324" type="curve" smooth="yes"/>
			<point x="490" y="550.3460289324"/>
			<point x="520" y="633.3460289324"/>
			<point x="520" y="695.3460289324" type="curve" smooth="yes"/>
			<point x="520" y="760.3460289324"/>
			<point x="475" y="797.3460289324"/>
			<point x="407" y="797.3460289324" type="curve" smooth="yes"/>
			<point x="350" y="797.3460289324"/>
			<point x="325" y="758.3460289324"/>
			<point x="325" y="694.3460289324" type="curve" smooth="yes"/>
			<point x="325" y="551.3460289324"/>
			<point x="300" y="534.3460289324"/>
			<point x="300" y="491.3460289324" type="curve" smooth="yes"/>
			<point x="300" y="456.3460289324"/>
			<point x="317" y="431.3460289324"/>
		</contour>
		<contour>
			<point x="97" y="431.3460289324" type="curve" smooth="yes"/>
			<point x="137" y="431.3460289324"/>
			<point x="165" y="452.3460289324"/>
			<point x="187" y="487.3460289324" type="curve" smooth="yes"/>
			<point x="226" y="550.3460289324"/>
			<point x="256" y="633.3460289324"/>
			<point x="256" y="695.3460289324" type="curve" smooth="yes"/>
			<point x="256" y="760.3460289324"/>
			<point x="211" y="797.3460289324"/>
			<point x="143" y="797.3460289324" type="curve" smooth="yes"/>
			<point x="86" y="797.3460289324"/>
			<point x="61" y="758.3460289324"/>
			<point x="61" y="694.3460289324" type="curve" smooth="yes"/>
			<point x="61" y="566.3460289324"/>
			<point x="36" y="536.3460289324"/>
			<point x="36" y="491.3460289324" type="curve" smooth="yes"/>
			<point x="36" y="456.3460289324"/>
			<point x="53" y="431.3460289324"/>
		</contour>
	</outline>
</glyph>
<glyph name="at.case" format="2">
	<advance width="924"/>
	<outline>
		<contour>
			<point x="534" y="187.8841524584" type="curve" smooth="yes"/>
			<point x="493" y="174.8841524584"/>
			<point x="454" y="136.8841524584"/>
			<point x="454" y="102.8841524584" type="curve" smooth="yes"/>
			<point x="454" y="84.8841524584"/>
			<point x="461" y="68.8841524584"/>
			<point x="475" y="56.8841524584" type="curve"/>
			<point x="353" y="155.8841524584" type="line"/>
			<point x="376" y="141.8841524584"/>
			<point x="393" y="138.8841524584"/>
			<point x="411" y="138.8841524584" type="curve" smooth="yes"/>
			<point x="427" y="138.8841524584"/>
			<point x="435" y="151.8841524584"/>
			<point x="459" y="179.8841524584" type="curve" smooth="yes"/>
			<point x="489" y="216.8841524584"/>
			<point x="523" y="241.8841524584"/>
			<point x="575" y="241.8841524584" type="curve" smooth="yes"/>
			<point x="610" y="241.8841524584"/>
			<point x="641" y="228.8841524584"/>
			<point x="663" y="196.8841524584" type="curve" smooth="yes"/>
			<point x="694" y="150.8841524584"/>
			<point x="704" y="150.8841524584"/>
			<point x="712" y="150.8841524584" type="curve"/>
			<point x="717" y="150.8841524584"/>
			<point x="720" y="158.8841524584"/>
			<point x="720" y="164.8841524584" type="curve" smooth="yes"/>
			<point x="720" y="269.8841524584"/>
			<point x="635" y="439.8841524584"/>
			<point x="515" y="439.8841524584" type="curve" smooth="yes"/>
			<point x="354" y="439.8841524584"/>
			<point x="204" y="293.8841524584"/>
			<point x="204" y="144.8841524584" type="curve" smooth="yes"/>
			<point x="204" y="-24.1158475416"/>
			<point x="358" y="-108.1158475416"/>
			<point x="515" y="-108.1158475416" type="curve" smooth="yes"/>
			<point x="653" y="-108.1158475416"/>
			<point x="709" y="-70.1158475416"/>
			<point x="749" y="-70.1158475416" type="curve" smooth="yes"/>
			<point x="802" y="-70.1158475416"/>
			<point x="833" y="-109.1158475416"/>
			<point x="833" y="-155.1158475416" type="curve" smooth="yes"/>
			<point x="833" y="-189.1158475416"/>
			<point x="813" y="-221.1158475416"/>
			<point x="775" y="-236.1158475416" type="curve" smooth="yes"/>
			<point x="705" y="-263.1158475416"/>
			<point x="636" y="-277.1158475416"/>
			<point x="515" y="-277.1158475416" type="curve" smooth="yes"/>
			<point x="254" y="-277.1158475416"/>
			<point x="35" y="-116.1158475416"/>
			<point x="35" y="144.8841524584" type="curve" smooth="yes"/>
			<point x="35" y="373.8841524584"/>
			<point x="262" y="609.8841524584"/>
			<point x="515" y="609.8841524584" type="curve" smooth="yes"/>
			<point x="761" y="609.8841524584"/>
			<point x="889" y="321.8841524584"/>
			<point x="889" y="164.8841524584" type="curve" smooth="yes"/>
			<point x="889" y="43.8841524584"/>
			<point x="817" y="-18.1158475416"/>
			<point x="733" y="-18.1158475416" type="curve" smooth="yes"/>
			<point x="683" y="-18.1158475416"/>
			<point x="615" y="-8.1158475416"/>
			<point x="539" y="100.8841524584" type="curve"/>
			<point x="592" y="97.8841524584" type="line"/>
			<point x="559" y="28.8841524584"/>
			<point x="511" y="-11.1158475416"/>
			<point x="433" y="-11.1158475416" type="curve" smooth="yes"/>
			<point x="352" y="-11.1158475416"/>
			<point x="300" y="28.8841524584"/>
			<point x="300" y="124.8841524584" type="curve" smooth="yes"/>
			<point x="300" y="239.8841524584"/>
			<point x="427" y="352.8841524584"/>
			<point x="504" y="352.8841524584" type="curve" smooth="yes"/>
			<point x="560" y="352.8841524584"/>
			<point x="589" y="315.8841524584"/>
			<point x="589" y="268.8841524584" type="curve" smooth="yes"/>
			<point x="589" y="233.8841524584"/>
			<point x="568" y="199.8841524584"/>
		</contour>
	</outline>
</glyph>
